<mxfile host="app.diagrams.net" modified="2021-04-19T18:57:35.080Z" agent="5.0 (X11)" etag="H4SLctsz6kR9Q2Ay6kKZ" version="14.6.0" type="github">
  <diagram id="ZZZEqUmLc0_E8XxHJjZa" name="Page-1">
    <mxGraphModel dx="1262" dy="666" grid="1" gridSize="10" guides="1" tooltips="1" connect="1" arrows="1" fold="1" page="1" pageScale="1" pageWidth="827" pageHeight="1169" math="0" shadow="0">
      <root>
        <mxCell id="0" />
        <mxCell id="1" parent="0" />
        <mxCell id="Jwxpb0Jw1F68lGEl7W2q-687" style="edgeStyle=orthogonalEdgeStyle;rounded=0;sketch=0;jumpStyle=none;orthogonalLoop=1;jettySize=auto;html=1;exitX=0.511;exitY=1.002;exitDx=0;exitDy=0;entryX=0.172;entryY=-0.048;entryDx=0;entryDy=0;entryPerimeter=0;startArrow=none;startFill=0;endArrow=classic;endFill=1;fontSize=27;exitPerimeter=0;fillColor=#f8cecc;strokeColor=#b85450;" parent="1" source="Jwxpb0Jw1F68lGEl7W2q-628" target="Jwxpb0Jw1F68lGEl7W2q-659" edge="1">
          <mxGeometry relative="1" as="geometry">
            <Array as="points">
              <mxPoint x="317" y="680" />
              <mxPoint x="437" y="680" />
            </Array>
          </mxGeometry>
        </mxCell>
        <mxCell id="Jwxpb0Jw1F68lGEl7W2q-569" value="" style="rounded=0;whiteSpace=wrap;html=1;shadow=0;glass=0;strokeWidth=1;fillColor=#fff2cc;strokeColor=none;" parent="1" vertex="1">
          <mxGeometry x="520" y="363" width="14" height="70" as="geometry" />
        </mxCell>
        <mxCell id="Jwxpb0Jw1F68lGEl7W2q-288" value="" style="rounded=0;whiteSpace=wrap;html=1;fillColor=#ffe6cc;shadow=0;glass=0;strokeColor=none;" parent="1" vertex="1">
          <mxGeometry x="250" y="330" width="43" height="15" as="geometry" />
        </mxCell>
        <mxCell id="Jwxpb0Jw1F68lGEl7W2q-272" value="" style="shape=table;html=1;whiteSpace=wrap;startSize=0;container=1;collapsible=0;childLayout=tableLayout;fillColor=none;" parent="1" vertex="1">
          <mxGeometry x="235" y="330" width="204" height="15" as="geometry" />
        </mxCell>
        <mxCell id="Jwxpb0Jw1F68lGEl7W2q-273" value="" style="shape=partialRectangle;html=1;whiteSpace=wrap;collapsible=0;dropTarget=0;pointerEvents=0;fillColor=none;top=0;left=0;bottom=0;right=0;points=[[0,0.5],[1,0.5]];portConstraint=eastwest;" parent="Jwxpb0Jw1F68lGEl7W2q-272" vertex="1">
          <mxGeometry width="204" height="15" as="geometry" />
        </mxCell>
        <mxCell id="Jwxpb0Jw1F68lGEl7W2q-274" value="" style="shape=partialRectangle;html=1;whiteSpace=wrap;connectable=0;overflow=hidden;fillColor=none;top=0;left=0;bottom=0;right=0;" parent="Jwxpb0Jw1F68lGEl7W2q-273" vertex="1">
          <mxGeometry width="15" height="15" as="geometry" />
        </mxCell>
        <mxCell id="Jwxpb0Jw1F68lGEl7W2q-275" value="" style="shape=partialRectangle;html=1;whiteSpace=wrap;connectable=0;overflow=hidden;fillColor=none;top=0;left=0;bottom=0;right=0;" parent="Jwxpb0Jw1F68lGEl7W2q-273" vertex="1">
          <mxGeometry x="15" width="14" height="15" as="geometry" />
        </mxCell>
        <mxCell id="Jwxpb0Jw1F68lGEl7W2q-276" value="" style="shape=partialRectangle;html=1;whiteSpace=wrap;connectable=0;overflow=hidden;fillColor=none;top=0;left=0;bottom=0;right=0;" parent="Jwxpb0Jw1F68lGEl7W2q-273" vertex="1">
          <mxGeometry x="29" width="15" height="15" as="geometry" />
        </mxCell>
        <mxCell id="Jwxpb0Jw1F68lGEl7W2q-277" value="" style="shape=partialRectangle;html=1;whiteSpace=wrap;connectable=0;overflow=hidden;fillColor=none;top=0;left=0;bottom=0;right=0;" parent="Jwxpb0Jw1F68lGEl7W2q-273" vertex="1">
          <mxGeometry x="44" width="14" height="15" as="geometry" />
        </mxCell>
        <mxCell id="Jwxpb0Jw1F68lGEl7W2q-278" value="" style="shape=partialRectangle;html=1;whiteSpace=wrap;connectable=0;overflow=hidden;fillColor=none;top=0;left=0;bottom=0;right=0;" parent="Jwxpb0Jw1F68lGEl7W2q-273" vertex="1">
          <mxGeometry x="58" width="15" height="15" as="geometry" />
        </mxCell>
        <mxCell id="Jwxpb0Jw1F68lGEl7W2q-279" value="" style="shape=partialRectangle;html=1;whiteSpace=wrap;connectable=0;overflow=hidden;fillColor=none;top=0;left=0;bottom=0;right=0;" parent="Jwxpb0Jw1F68lGEl7W2q-273" vertex="1">
          <mxGeometry x="73" width="14" height="15" as="geometry" />
        </mxCell>
        <mxCell id="Jwxpb0Jw1F68lGEl7W2q-280" value="" style="shape=partialRectangle;html=1;whiteSpace=wrap;connectable=0;overflow=hidden;fillColor=none;top=0;left=0;bottom=0;right=0;" parent="Jwxpb0Jw1F68lGEl7W2q-273" vertex="1">
          <mxGeometry x="87" width="16" height="15" as="geometry" />
        </mxCell>
        <mxCell id="Jwxpb0Jw1F68lGEl7W2q-281" value="" style="shape=partialRectangle;html=1;whiteSpace=wrap;connectable=0;overflow=hidden;fillColor=none;top=0;left=0;bottom=0;right=0;" parent="Jwxpb0Jw1F68lGEl7W2q-273" vertex="1">
          <mxGeometry x="103" width="14" height="15" as="geometry" />
        </mxCell>
        <mxCell id="Jwxpb0Jw1F68lGEl7W2q-282" value="" style="shape=partialRectangle;html=1;whiteSpace=wrap;connectable=0;overflow=hidden;fillColor=none;top=0;left=0;bottom=0;right=0;" parent="Jwxpb0Jw1F68lGEl7W2q-273" vertex="1">
          <mxGeometry x="117" width="15" height="15" as="geometry" />
        </mxCell>
        <mxCell id="Jwxpb0Jw1F68lGEl7W2q-283" value="" style="shape=partialRectangle;html=1;whiteSpace=wrap;connectable=0;overflow=hidden;fillColor=none;top=0;left=0;bottom=0;right=0;" parent="Jwxpb0Jw1F68lGEl7W2q-273" vertex="1">
          <mxGeometry x="132" width="14" height="15" as="geometry" />
        </mxCell>
        <mxCell id="Jwxpb0Jw1F68lGEl7W2q-284" value="" style="shape=partialRectangle;html=1;whiteSpace=wrap;connectable=0;overflow=hidden;fillColor=none;top=0;left=0;bottom=0;right=0;" parent="Jwxpb0Jw1F68lGEl7W2q-273" vertex="1">
          <mxGeometry x="146" width="15" height="15" as="geometry" />
        </mxCell>
        <mxCell id="Jwxpb0Jw1F68lGEl7W2q-285" value="" style="shape=partialRectangle;html=1;whiteSpace=wrap;connectable=0;overflow=hidden;fillColor=none;top=0;left=0;bottom=0;right=0;" parent="Jwxpb0Jw1F68lGEl7W2q-273" vertex="1">
          <mxGeometry x="161" width="14" height="15" as="geometry" />
        </mxCell>
        <mxCell id="Jwxpb0Jw1F68lGEl7W2q-286" value="" style="shape=partialRectangle;html=1;whiteSpace=wrap;connectable=0;overflow=hidden;fillColor=none;top=0;left=0;bottom=0;right=0;" parent="Jwxpb0Jw1F68lGEl7W2q-273" vertex="1">
          <mxGeometry x="175" width="15" height="15" as="geometry" />
        </mxCell>
        <mxCell id="Jwxpb0Jw1F68lGEl7W2q-287" value="" style="shape=partialRectangle;html=1;whiteSpace=wrap;connectable=0;overflow=hidden;fillColor=none;top=0;left=0;bottom=0;right=0;" parent="Jwxpb0Jw1F68lGEl7W2q-273" vertex="1">
          <mxGeometry x="190" width="14" height="15" as="geometry" />
        </mxCell>
        <mxCell id="Jwxpb0Jw1F68lGEl7W2q-289" value="" style="rounded=0;whiteSpace=wrap;html=1;fillColor=#dae8fc;shadow=0;glass=0;strokeColor=none;" parent="1" vertex="1">
          <mxGeometry x="250" y="360" width="43" height="15" as="geometry" />
        </mxCell>
        <mxCell id="Jwxpb0Jw1F68lGEl7W2q-306" value="" style="rounded=0;whiteSpace=wrap;html=1;fillColor=#d5e8d4;shadow=0;glass=0;strokeColor=none;" parent="1" vertex="1">
          <mxGeometry x="250" y="390" width="43" height="15" as="geometry" />
        </mxCell>
        <mxCell id="Jwxpb0Jw1F68lGEl7W2q-323" value="" style="rounded=0;whiteSpace=wrap;html=1;shadow=0;glass=0;fillColor=#e1d5e7;strokeColor=none;" parent="1" vertex="1">
          <mxGeometry x="250" y="420" width="43" height="15" as="geometry" />
        </mxCell>
        <mxCell id="Jwxpb0Jw1F68lGEl7W2q-341" value="" style="rounded=0;whiteSpace=wrap;html=1;fillColor=#bac8d3;shadow=0;glass=0;strokeColor=none;" parent="1" vertex="1">
          <mxGeometry x="250" y="450" width="43" height="15" as="geometry" />
        </mxCell>
        <mxCell id="Jwxpb0Jw1F68lGEl7W2q-290" value="" style="shape=table;html=1;whiteSpace=wrap;startSize=0;container=1;collapsible=0;childLayout=tableLayout;fillColor=none;" parent="1" vertex="1">
          <mxGeometry x="235" y="360" width="204" height="15" as="geometry" />
        </mxCell>
        <mxCell id="Jwxpb0Jw1F68lGEl7W2q-291" value="" style="shape=partialRectangle;html=1;whiteSpace=wrap;collapsible=0;dropTarget=0;pointerEvents=0;fillColor=none;top=0;left=0;bottom=0;right=0;points=[[0,0.5],[1,0.5]];portConstraint=eastwest;" parent="Jwxpb0Jw1F68lGEl7W2q-290" vertex="1">
          <mxGeometry width="204" height="15" as="geometry" />
        </mxCell>
        <mxCell id="Jwxpb0Jw1F68lGEl7W2q-292" value="" style="shape=partialRectangle;html=1;whiteSpace=wrap;connectable=0;overflow=hidden;fillColor=none;top=0;left=0;bottom=0;right=0;" parent="Jwxpb0Jw1F68lGEl7W2q-291" vertex="1">
          <mxGeometry width="15" height="15" as="geometry" />
        </mxCell>
        <mxCell id="Jwxpb0Jw1F68lGEl7W2q-293" value="" style="shape=partialRectangle;html=1;whiteSpace=wrap;connectable=0;overflow=hidden;fillColor=none;top=0;left=0;bottom=0;right=0;" parent="Jwxpb0Jw1F68lGEl7W2q-291" vertex="1">
          <mxGeometry x="15" width="14" height="15" as="geometry" />
        </mxCell>
        <mxCell id="Jwxpb0Jw1F68lGEl7W2q-294" value="" style="shape=partialRectangle;html=1;whiteSpace=wrap;connectable=0;overflow=hidden;fillColor=none;top=0;left=0;bottom=0;right=0;" parent="Jwxpb0Jw1F68lGEl7W2q-291" vertex="1">
          <mxGeometry x="29" width="15" height="15" as="geometry" />
        </mxCell>
        <mxCell id="Jwxpb0Jw1F68lGEl7W2q-295" value="" style="shape=partialRectangle;html=1;whiteSpace=wrap;connectable=0;overflow=hidden;fillColor=none;top=0;left=0;bottom=0;right=0;" parent="Jwxpb0Jw1F68lGEl7W2q-291" vertex="1">
          <mxGeometry x="44" width="14" height="15" as="geometry" />
        </mxCell>
        <mxCell id="Jwxpb0Jw1F68lGEl7W2q-296" value="" style="shape=partialRectangle;html=1;whiteSpace=wrap;connectable=0;overflow=hidden;fillColor=none;top=0;left=0;bottom=0;right=0;" parent="Jwxpb0Jw1F68lGEl7W2q-291" vertex="1">
          <mxGeometry x="58" width="15" height="15" as="geometry" />
        </mxCell>
        <mxCell id="Jwxpb0Jw1F68lGEl7W2q-297" value="" style="shape=partialRectangle;html=1;whiteSpace=wrap;connectable=0;overflow=hidden;fillColor=none;top=0;left=0;bottom=0;right=0;" parent="Jwxpb0Jw1F68lGEl7W2q-291" vertex="1">
          <mxGeometry x="73" width="14" height="15" as="geometry" />
        </mxCell>
        <mxCell id="Jwxpb0Jw1F68lGEl7W2q-298" value="" style="shape=partialRectangle;html=1;whiteSpace=wrap;connectable=0;overflow=hidden;fillColor=none;top=0;left=0;bottom=0;right=0;" parent="Jwxpb0Jw1F68lGEl7W2q-291" vertex="1">
          <mxGeometry x="87" width="16" height="15" as="geometry" />
        </mxCell>
        <mxCell id="Jwxpb0Jw1F68lGEl7W2q-299" value="" style="shape=partialRectangle;html=1;whiteSpace=wrap;connectable=0;overflow=hidden;fillColor=none;top=0;left=0;bottom=0;right=0;" parent="Jwxpb0Jw1F68lGEl7W2q-291" vertex="1">
          <mxGeometry x="103" width="14" height="15" as="geometry" />
        </mxCell>
        <mxCell id="Jwxpb0Jw1F68lGEl7W2q-300" value="" style="shape=partialRectangle;html=1;whiteSpace=wrap;connectable=0;overflow=hidden;fillColor=none;top=0;left=0;bottom=0;right=0;" parent="Jwxpb0Jw1F68lGEl7W2q-291" vertex="1">
          <mxGeometry x="117" width="15" height="15" as="geometry" />
        </mxCell>
        <mxCell id="Jwxpb0Jw1F68lGEl7W2q-301" value="" style="shape=partialRectangle;html=1;whiteSpace=wrap;connectable=0;overflow=hidden;fillColor=none;top=0;left=0;bottom=0;right=0;" parent="Jwxpb0Jw1F68lGEl7W2q-291" vertex="1">
          <mxGeometry x="132" width="14" height="15" as="geometry" />
        </mxCell>
        <mxCell id="Jwxpb0Jw1F68lGEl7W2q-302" value="" style="shape=partialRectangle;html=1;whiteSpace=wrap;connectable=0;overflow=hidden;fillColor=none;top=0;left=0;bottom=0;right=0;" parent="Jwxpb0Jw1F68lGEl7W2q-291" vertex="1">
          <mxGeometry x="146" width="15" height="15" as="geometry" />
        </mxCell>
        <mxCell id="Jwxpb0Jw1F68lGEl7W2q-303" value="" style="shape=partialRectangle;html=1;whiteSpace=wrap;connectable=0;overflow=hidden;fillColor=none;top=0;left=0;bottom=0;right=0;" parent="Jwxpb0Jw1F68lGEl7W2q-291" vertex="1">
          <mxGeometry x="161" width="14" height="15" as="geometry" />
        </mxCell>
        <mxCell id="Jwxpb0Jw1F68lGEl7W2q-304" value="" style="shape=partialRectangle;html=1;whiteSpace=wrap;connectable=0;overflow=hidden;fillColor=none;top=0;left=0;bottom=0;right=0;" parent="Jwxpb0Jw1F68lGEl7W2q-291" vertex="1">
          <mxGeometry x="175" width="15" height="15" as="geometry" />
        </mxCell>
        <mxCell id="Jwxpb0Jw1F68lGEl7W2q-305" value="" style="shape=partialRectangle;html=1;whiteSpace=wrap;connectable=0;overflow=hidden;fillColor=none;top=0;left=0;bottom=0;right=0;" parent="Jwxpb0Jw1F68lGEl7W2q-291" vertex="1">
          <mxGeometry x="190" width="14" height="15" as="geometry" />
        </mxCell>
        <mxCell id="Jwxpb0Jw1F68lGEl7W2q-307" value="" style="shape=table;html=1;whiteSpace=wrap;startSize=0;container=1;collapsible=0;childLayout=tableLayout;fillColor=none;" parent="1" vertex="1">
          <mxGeometry x="235" y="390" width="204" height="15" as="geometry" />
        </mxCell>
        <mxCell id="Jwxpb0Jw1F68lGEl7W2q-308" value="" style="shape=partialRectangle;html=1;whiteSpace=wrap;collapsible=0;dropTarget=0;pointerEvents=0;fillColor=none;top=0;left=0;bottom=0;right=0;points=[[0,0.5],[1,0.5]];portConstraint=eastwest;" parent="Jwxpb0Jw1F68lGEl7W2q-307" vertex="1">
          <mxGeometry width="204" height="15" as="geometry" />
        </mxCell>
        <mxCell id="Jwxpb0Jw1F68lGEl7W2q-309" value="" style="shape=partialRectangle;html=1;whiteSpace=wrap;connectable=0;overflow=hidden;fillColor=none;top=0;left=0;bottom=0;right=0;" parent="Jwxpb0Jw1F68lGEl7W2q-308" vertex="1">
          <mxGeometry width="15" height="15" as="geometry" />
        </mxCell>
        <mxCell id="Jwxpb0Jw1F68lGEl7W2q-310" value="" style="shape=partialRectangle;html=1;whiteSpace=wrap;connectable=0;overflow=hidden;fillColor=none;top=0;left=0;bottom=0;right=0;" parent="Jwxpb0Jw1F68lGEl7W2q-308" vertex="1">
          <mxGeometry x="15" width="14" height="15" as="geometry" />
        </mxCell>
        <mxCell id="Jwxpb0Jw1F68lGEl7W2q-311" value="" style="shape=partialRectangle;html=1;whiteSpace=wrap;connectable=0;overflow=hidden;fillColor=none;top=0;left=0;bottom=0;right=0;" parent="Jwxpb0Jw1F68lGEl7W2q-308" vertex="1">
          <mxGeometry x="29" width="15" height="15" as="geometry" />
        </mxCell>
        <mxCell id="Jwxpb0Jw1F68lGEl7W2q-312" value="" style="shape=partialRectangle;html=1;whiteSpace=wrap;connectable=0;overflow=hidden;fillColor=none;top=0;left=0;bottom=0;right=0;" parent="Jwxpb0Jw1F68lGEl7W2q-308" vertex="1">
          <mxGeometry x="44" width="14" height="15" as="geometry" />
        </mxCell>
        <mxCell id="Jwxpb0Jw1F68lGEl7W2q-313" value="" style="shape=partialRectangle;html=1;whiteSpace=wrap;connectable=0;overflow=hidden;fillColor=none;top=0;left=0;bottom=0;right=0;" parent="Jwxpb0Jw1F68lGEl7W2q-308" vertex="1">
          <mxGeometry x="58" width="15" height="15" as="geometry" />
        </mxCell>
        <mxCell id="Jwxpb0Jw1F68lGEl7W2q-314" value="" style="shape=partialRectangle;html=1;whiteSpace=wrap;connectable=0;overflow=hidden;fillColor=none;top=0;left=0;bottom=0;right=0;" parent="Jwxpb0Jw1F68lGEl7W2q-308" vertex="1">
          <mxGeometry x="73" width="14" height="15" as="geometry" />
        </mxCell>
        <mxCell id="Jwxpb0Jw1F68lGEl7W2q-315" value="" style="shape=partialRectangle;html=1;whiteSpace=wrap;connectable=0;overflow=hidden;fillColor=none;top=0;left=0;bottom=0;right=0;" parent="Jwxpb0Jw1F68lGEl7W2q-308" vertex="1">
          <mxGeometry x="87" width="16" height="15" as="geometry" />
        </mxCell>
        <mxCell id="Jwxpb0Jw1F68lGEl7W2q-316" value="" style="shape=partialRectangle;html=1;whiteSpace=wrap;connectable=0;overflow=hidden;fillColor=none;top=0;left=0;bottom=0;right=0;" parent="Jwxpb0Jw1F68lGEl7W2q-308" vertex="1">
          <mxGeometry x="103" width="14" height="15" as="geometry" />
        </mxCell>
        <mxCell id="Jwxpb0Jw1F68lGEl7W2q-317" value="" style="shape=partialRectangle;html=1;whiteSpace=wrap;connectable=0;overflow=hidden;fillColor=none;top=0;left=0;bottom=0;right=0;" parent="Jwxpb0Jw1F68lGEl7W2q-308" vertex="1">
          <mxGeometry x="117" width="15" height="15" as="geometry" />
        </mxCell>
        <mxCell id="Jwxpb0Jw1F68lGEl7W2q-318" value="" style="shape=partialRectangle;html=1;whiteSpace=wrap;connectable=0;overflow=hidden;fillColor=none;top=0;left=0;bottom=0;right=0;" parent="Jwxpb0Jw1F68lGEl7W2q-308" vertex="1">
          <mxGeometry x="132" width="14" height="15" as="geometry" />
        </mxCell>
        <mxCell id="Jwxpb0Jw1F68lGEl7W2q-319" value="" style="shape=partialRectangle;html=1;whiteSpace=wrap;connectable=0;overflow=hidden;fillColor=none;top=0;left=0;bottom=0;right=0;" parent="Jwxpb0Jw1F68lGEl7W2q-308" vertex="1">
          <mxGeometry x="146" width="15" height="15" as="geometry" />
        </mxCell>
        <mxCell id="Jwxpb0Jw1F68lGEl7W2q-320" value="" style="shape=partialRectangle;html=1;whiteSpace=wrap;connectable=0;overflow=hidden;fillColor=none;top=0;left=0;bottom=0;right=0;" parent="Jwxpb0Jw1F68lGEl7W2q-308" vertex="1">
          <mxGeometry x="161" width="14" height="15" as="geometry" />
        </mxCell>
        <mxCell id="Jwxpb0Jw1F68lGEl7W2q-321" value="" style="shape=partialRectangle;html=1;whiteSpace=wrap;connectable=0;overflow=hidden;fillColor=none;top=0;left=0;bottom=0;right=0;" parent="Jwxpb0Jw1F68lGEl7W2q-308" vertex="1">
          <mxGeometry x="175" width="15" height="15" as="geometry" />
        </mxCell>
        <mxCell id="Jwxpb0Jw1F68lGEl7W2q-322" value="" style="shape=partialRectangle;html=1;whiteSpace=wrap;connectable=0;overflow=hidden;fillColor=none;top=0;left=0;bottom=0;right=0;" parent="Jwxpb0Jw1F68lGEl7W2q-308" vertex="1">
          <mxGeometry x="190" width="14" height="15" as="geometry" />
        </mxCell>
        <mxCell id="Jwxpb0Jw1F68lGEl7W2q-324" value="" style="shape=table;html=1;whiteSpace=wrap;startSize=0;container=1;collapsible=0;childLayout=tableLayout;fillColor=none;" parent="1" vertex="1">
          <mxGeometry x="235" y="420" width="204" height="15" as="geometry" />
        </mxCell>
        <mxCell id="Jwxpb0Jw1F68lGEl7W2q-325" value="" style="shape=partialRectangle;html=1;whiteSpace=wrap;collapsible=0;dropTarget=0;pointerEvents=0;fillColor=none;top=0;left=0;bottom=0;right=0;points=[[0,0.5],[1,0.5]];portConstraint=eastwest;" parent="Jwxpb0Jw1F68lGEl7W2q-324" vertex="1">
          <mxGeometry width="204" height="15" as="geometry" />
        </mxCell>
        <mxCell id="Jwxpb0Jw1F68lGEl7W2q-326" value="" style="shape=partialRectangle;html=1;whiteSpace=wrap;connectable=0;overflow=hidden;fillColor=none;top=0;left=0;bottom=0;right=0;" parent="Jwxpb0Jw1F68lGEl7W2q-325" vertex="1">
          <mxGeometry width="15" height="15" as="geometry" />
        </mxCell>
        <mxCell id="Jwxpb0Jw1F68lGEl7W2q-327" value="" style="shape=partialRectangle;html=1;whiteSpace=wrap;connectable=0;overflow=hidden;fillColor=none;top=0;left=0;bottom=0;right=0;" parent="Jwxpb0Jw1F68lGEl7W2q-325" vertex="1">
          <mxGeometry x="15" width="14" height="15" as="geometry" />
        </mxCell>
        <mxCell id="Jwxpb0Jw1F68lGEl7W2q-328" value="" style="shape=partialRectangle;html=1;whiteSpace=wrap;connectable=0;overflow=hidden;fillColor=none;top=0;left=0;bottom=0;right=0;" parent="Jwxpb0Jw1F68lGEl7W2q-325" vertex="1">
          <mxGeometry x="29" width="15" height="15" as="geometry" />
        </mxCell>
        <mxCell id="Jwxpb0Jw1F68lGEl7W2q-329" value="" style="shape=partialRectangle;html=1;whiteSpace=wrap;connectable=0;overflow=hidden;fillColor=none;top=0;left=0;bottom=0;right=0;" parent="Jwxpb0Jw1F68lGEl7W2q-325" vertex="1">
          <mxGeometry x="44" width="14" height="15" as="geometry" />
        </mxCell>
        <mxCell id="Jwxpb0Jw1F68lGEl7W2q-330" value="" style="shape=partialRectangle;html=1;whiteSpace=wrap;connectable=0;overflow=hidden;fillColor=none;top=0;left=0;bottom=0;right=0;" parent="Jwxpb0Jw1F68lGEl7W2q-325" vertex="1">
          <mxGeometry x="58" width="15" height="15" as="geometry" />
        </mxCell>
        <mxCell id="Jwxpb0Jw1F68lGEl7W2q-331" value="" style="shape=partialRectangle;html=1;whiteSpace=wrap;connectable=0;overflow=hidden;fillColor=none;top=0;left=0;bottom=0;right=0;" parent="Jwxpb0Jw1F68lGEl7W2q-325" vertex="1">
          <mxGeometry x="73" width="14" height="15" as="geometry" />
        </mxCell>
        <mxCell id="Jwxpb0Jw1F68lGEl7W2q-332" value="" style="shape=partialRectangle;html=1;whiteSpace=wrap;connectable=0;overflow=hidden;fillColor=none;top=0;left=0;bottom=0;right=0;" parent="Jwxpb0Jw1F68lGEl7W2q-325" vertex="1">
          <mxGeometry x="87" width="16" height="15" as="geometry" />
        </mxCell>
        <mxCell id="Jwxpb0Jw1F68lGEl7W2q-333" value="" style="shape=partialRectangle;html=1;whiteSpace=wrap;connectable=0;overflow=hidden;fillColor=none;top=0;left=0;bottom=0;right=0;" parent="Jwxpb0Jw1F68lGEl7W2q-325" vertex="1">
          <mxGeometry x="103" width="14" height="15" as="geometry" />
        </mxCell>
        <mxCell id="Jwxpb0Jw1F68lGEl7W2q-334" value="" style="shape=partialRectangle;html=1;whiteSpace=wrap;connectable=0;overflow=hidden;fillColor=none;top=0;left=0;bottom=0;right=0;" parent="Jwxpb0Jw1F68lGEl7W2q-325" vertex="1">
          <mxGeometry x="117" width="15" height="15" as="geometry" />
        </mxCell>
        <mxCell id="Jwxpb0Jw1F68lGEl7W2q-335" value="" style="shape=partialRectangle;html=1;whiteSpace=wrap;connectable=0;overflow=hidden;fillColor=none;top=0;left=0;bottom=0;right=0;" parent="Jwxpb0Jw1F68lGEl7W2q-325" vertex="1">
          <mxGeometry x="132" width="14" height="15" as="geometry" />
        </mxCell>
        <mxCell id="Jwxpb0Jw1F68lGEl7W2q-336" value="" style="shape=partialRectangle;html=1;whiteSpace=wrap;connectable=0;overflow=hidden;fillColor=none;top=0;left=0;bottom=0;right=0;" parent="Jwxpb0Jw1F68lGEl7W2q-325" vertex="1">
          <mxGeometry x="146" width="15" height="15" as="geometry" />
        </mxCell>
        <mxCell id="Jwxpb0Jw1F68lGEl7W2q-337" value="" style="shape=partialRectangle;html=1;whiteSpace=wrap;connectable=0;overflow=hidden;fillColor=none;top=0;left=0;bottom=0;right=0;" parent="Jwxpb0Jw1F68lGEl7W2q-325" vertex="1">
          <mxGeometry x="161" width="14" height="15" as="geometry" />
        </mxCell>
        <mxCell id="Jwxpb0Jw1F68lGEl7W2q-338" value="" style="shape=partialRectangle;html=1;whiteSpace=wrap;connectable=0;overflow=hidden;fillColor=none;top=0;left=0;bottom=0;right=0;" parent="Jwxpb0Jw1F68lGEl7W2q-325" vertex="1">
          <mxGeometry x="175" width="15" height="15" as="geometry" />
        </mxCell>
        <mxCell id="Jwxpb0Jw1F68lGEl7W2q-339" value="" style="shape=partialRectangle;html=1;whiteSpace=wrap;connectable=0;overflow=hidden;fillColor=none;top=0;left=0;bottom=0;right=0;" parent="Jwxpb0Jw1F68lGEl7W2q-325" vertex="1">
          <mxGeometry x="190" width="14" height="15" as="geometry" />
        </mxCell>
        <mxCell id="Jwxpb0Jw1F68lGEl7W2q-342" value="" style="shape=table;html=1;whiteSpace=wrap;startSize=0;container=1;collapsible=0;childLayout=tableLayout;fillColor=none;" parent="1" vertex="1">
          <mxGeometry x="235" y="450" width="204" height="15" as="geometry" />
        </mxCell>
        <mxCell id="Jwxpb0Jw1F68lGEl7W2q-343" value="" style="shape=partialRectangle;html=1;whiteSpace=wrap;collapsible=0;dropTarget=0;pointerEvents=0;fillColor=none;top=0;left=0;bottom=0;right=0;points=[[0,0.5],[1,0.5]];portConstraint=eastwest;" parent="Jwxpb0Jw1F68lGEl7W2q-342" vertex="1">
          <mxGeometry width="204" height="15" as="geometry" />
        </mxCell>
        <mxCell id="Jwxpb0Jw1F68lGEl7W2q-344" value="" style="shape=partialRectangle;html=1;whiteSpace=wrap;connectable=0;overflow=hidden;fillColor=none;top=0;left=0;bottom=0;right=0;" parent="Jwxpb0Jw1F68lGEl7W2q-343" vertex="1">
          <mxGeometry width="15" height="15" as="geometry" />
        </mxCell>
        <mxCell id="Jwxpb0Jw1F68lGEl7W2q-345" value="" style="shape=partialRectangle;html=1;whiteSpace=wrap;connectable=0;overflow=hidden;fillColor=none;top=0;left=0;bottom=0;right=0;" parent="Jwxpb0Jw1F68lGEl7W2q-343" vertex="1">
          <mxGeometry x="15" width="14" height="15" as="geometry" />
        </mxCell>
        <mxCell id="Jwxpb0Jw1F68lGEl7W2q-346" value="" style="shape=partialRectangle;html=1;whiteSpace=wrap;connectable=0;overflow=hidden;fillColor=none;top=0;left=0;bottom=0;right=0;" parent="Jwxpb0Jw1F68lGEl7W2q-343" vertex="1">
          <mxGeometry x="29" width="15" height="15" as="geometry" />
        </mxCell>
        <mxCell id="Jwxpb0Jw1F68lGEl7W2q-347" value="" style="shape=partialRectangle;html=1;whiteSpace=wrap;connectable=0;overflow=hidden;fillColor=none;top=0;left=0;bottom=0;right=0;" parent="Jwxpb0Jw1F68lGEl7W2q-343" vertex="1">
          <mxGeometry x="44" width="14" height="15" as="geometry" />
        </mxCell>
        <mxCell id="Jwxpb0Jw1F68lGEl7W2q-348" value="" style="shape=partialRectangle;html=1;whiteSpace=wrap;connectable=0;overflow=hidden;fillColor=none;top=0;left=0;bottom=0;right=0;" parent="Jwxpb0Jw1F68lGEl7W2q-343" vertex="1">
          <mxGeometry x="58" width="15" height="15" as="geometry" />
        </mxCell>
        <mxCell id="Jwxpb0Jw1F68lGEl7W2q-349" value="" style="shape=partialRectangle;html=1;whiteSpace=wrap;connectable=0;overflow=hidden;fillColor=none;top=0;left=0;bottom=0;right=0;" parent="Jwxpb0Jw1F68lGEl7W2q-343" vertex="1">
          <mxGeometry x="73" width="14" height="15" as="geometry" />
        </mxCell>
        <mxCell id="Jwxpb0Jw1F68lGEl7W2q-350" value="" style="shape=partialRectangle;html=1;whiteSpace=wrap;connectable=0;overflow=hidden;fillColor=none;top=0;left=0;bottom=0;right=0;" parent="Jwxpb0Jw1F68lGEl7W2q-343" vertex="1">
          <mxGeometry x="87" width="16" height="15" as="geometry" />
        </mxCell>
        <mxCell id="Jwxpb0Jw1F68lGEl7W2q-351" value="" style="shape=partialRectangle;html=1;whiteSpace=wrap;connectable=0;overflow=hidden;fillColor=none;top=0;left=0;bottom=0;right=0;" parent="Jwxpb0Jw1F68lGEl7W2q-343" vertex="1">
          <mxGeometry x="103" width="14" height="15" as="geometry" />
        </mxCell>
        <mxCell id="Jwxpb0Jw1F68lGEl7W2q-352" value="" style="shape=partialRectangle;html=1;whiteSpace=wrap;connectable=0;overflow=hidden;fillColor=none;top=0;left=0;bottom=0;right=0;" parent="Jwxpb0Jw1F68lGEl7W2q-343" vertex="1">
          <mxGeometry x="117" width="15" height="15" as="geometry" />
        </mxCell>
        <mxCell id="Jwxpb0Jw1F68lGEl7W2q-353" value="" style="shape=partialRectangle;html=1;whiteSpace=wrap;connectable=0;overflow=hidden;fillColor=none;top=0;left=0;bottom=0;right=0;" parent="Jwxpb0Jw1F68lGEl7W2q-343" vertex="1">
          <mxGeometry x="132" width="14" height="15" as="geometry" />
        </mxCell>
        <mxCell id="Jwxpb0Jw1F68lGEl7W2q-354" value="" style="shape=partialRectangle;html=1;whiteSpace=wrap;connectable=0;overflow=hidden;fillColor=none;top=0;left=0;bottom=0;right=0;" parent="Jwxpb0Jw1F68lGEl7W2q-343" vertex="1">
          <mxGeometry x="146" width="15" height="15" as="geometry" />
        </mxCell>
        <mxCell id="Jwxpb0Jw1F68lGEl7W2q-355" value="" style="shape=partialRectangle;html=1;whiteSpace=wrap;connectable=0;overflow=hidden;fillColor=none;top=0;left=0;bottom=0;right=0;" parent="Jwxpb0Jw1F68lGEl7W2q-343" vertex="1">
          <mxGeometry x="161" width="14" height="15" as="geometry" />
        </mxCell>
        <mxCell id="Jwxpb0Jw1F68lGEl7W2q-356" value="" style="shape=partialRectangle;html=1;whiteSpace=wrap;connectable=0;overflow=hidden;fillColor=none;top=0;left=0;bottom=0;right=0;" parent="Jwxpb0Jw1F68lGEl7W2q-343" vertex="1">
          <mxGeometry x="175" width="15" height="15" as="geometry" />
        </mxCell>
        <mxCell id="Jwxpb0Jw1F68lGEl7W2q-357" value="" style="shape=partialRectangle;html=1;whiteSpace=wrap;connectable=0;overflow=hidden;fillColor=none;top=0;left=0;bottom=0;right=0;" parent="Jwxpb0Jw1F68lGEl7W2q-343" vertex="1">
          <mxGeometry x="190" width="14" height="15" as="geometry" />
        </mxCell>
        <mxCell id="Jwxpb0Jw1F68lGEl7W2q-188" value="" style="rounded=0;whiteSpace=wrap;html=1;fillColor=#ffe6cc;shadow=0;glass=0;strokeColor=none;" parent="1" vertex="1">
          <mxGeometry x="251" y="110" width="43" height="70" as="geometry" />
        </mxCell>
        <mxCell id="Jwxpb0Jw1F68lGEl7W2q-123" value="&lt;div&gt;EEG Channels (5)&lt;/div&gt;" style="text;html=1;strokeColor=none;fillColor=none;align=center;verticalAlign=middle;whiteSpace=wrap;rounded=0;rotation=-90;" parent="1" vertex="1">
          <mxGeometry x="162" y="130" width="110" height="20" as="geometry" />
        </mxCell>
        <mxCell id="Jwxpb0Jw1F68lGEl7W2q-195" style="edgeStyle=orthogonalEdgeStyle;rounded=0;orthogonalLoop=1;jettySize=auto;html=1;exitX=1;exitY=0.5;exitDx=0;exitDy=0;" parent="1" source="Jwxpb0Jw1F68lGEl7W2q-187" edge="1">
          <mxGeometry relative="1" as="geometry">
            <mxPoint x="391.5" y="199.8571428571429" as="targetPoint" />
          </mxGeometry>
        </mxCell>
        <mxCell id="Jwxpb0Jw1F68lGEl7W2q-187" value="Time (14)" style="text;html=1;strokeColor=none;fillColor=none;align=center;verticalAlign=middle;whiteSpace=wrap;rounded=0;" parent="1" vertex="1">
          <mxGeometry x="279.5" y="190" width="62" height="20" as="geometry" />
        </mxCell>
        <mxCell id="Jwxpb0Jw1F68lGEl7W2q-189" value="" style="strokeWidth=1;html=1;shape=mxgraph.flowchart.annotation_2;align=left;labelPosition=right;pointerEvents=1;shadow=0;glass=0;fillColor=none;gradientColor=#ffffff;rotation=90;" parent="1" vertex="1">
          <mxGeometry x="260" y="71" width="25.5" height="43" as="geometry" />
        </mxCell>
        <mxCell id="Jwxpb0Jw1F68lGEl7W2q-194" value="(5x3) kernel" style="text;html=1;strokeColor=none;fillColor=none;align=center;verticalAlign=middle;whiteSpace=wrap;rounded=0;" parent="1" vertex="1">
          <mxGeometry x="236.25" y="62" width="70.5" height="20" as="geometry" />
        </mxCell>
        <mxCell id="Jwxpb0Jw1F68lGEl7W2q-196" value="" style="shape=table;html=1;whiteSpace=wrap;startSize=0;container=1;collapsible=0;childLayout=tableLayout;fillColor=none;" parent="1" vertex="1">
          <mxGeometry x="237" y="110" width="200" height="70" as="geometry" />
        </mxCell>
        <mxCell id="Jwxpb0Jw1F68lGEl7W2q-197" value="" style="shape=partialRectangle;html=1;whiteSpace=wrap;collapsible=0;dropTarget=0;pointerEvents=0;fillColor=none;top=0;left=0;bottom=0;right=0;points=[[0,0.5],[1,0.5]];portConstraint=eastwest;" parent="Jwxpb0Jw1F68lGEl7W2q-196" vertex="1">
          <mxGeometry width="200" height="14" as="geometry" />
        </mxCell>
        <mxCell id="Jwxpb0Jw1F68lGEl7W2q-198" value="" style="shape=partialRectangle;html=1;whiteSpace=wrap;connectable=0;overflow=hidden;fillColor=none;top=0;left=0;bottom=0;right=0;" parent="Jwxpb0Jw1F68lGEl7W2q-197" vertex="1">
          <mxGeometry width="14" height="14" as="geometry" />
        </mxCell>
        <mxCell id="Jwxpb0Jw1F68lGEl7W2q-199" value="" style="shape=partialRectangle;html=1;whiteSpace=wrap;connectable=0;overflow=hidden;fillColor=none;top=0;left=0;bottom=0;right=0;" parent="Jwxpb0Jw1F68lGEl7W2q-197" vertex="1">
          <mxGeometry x="14" width="15" height="14" as="geometry" />
        </mxCell>
        <mxCell id="Jwxpb0Jw1F68lGEl7W2q-200" value="" style="shape=partialRectangle;html=1;whiteSpace=wrap;connectable=0;overflow=hidden;fillColor=none;top=0;left=0;bottom=0;right=0;" parent="Jwxpb0Jw1F68lGEl7W2q-197" vertex="1">
          <mxGeometry x="29" width="14" height="14" as="geometry" />
        </mxCell>
        <mxCell id="Jwxpb0Jw1F68lGEl7W2q-201" value="" style="shape=partialRectangle;html=1;whiteSpace=wrap;connectable=0;overflow=hidden;fillColor=none;top=0;left=0;bottom=0;right=0;" parent="Jwxpb0Jw1F68lGEl7W2q-197" vertex="1">
          <mxGeometry x="43" width="14" height="14" as="geometry" />
        </mxCell>
        <mxCell id="Jwxpb0Jw1F68lGEl7W2q-202" value="" style="shape=partialRectangle;html=1;whiteSpace=wrap;connectable=0;overflow=hidden;fillColor=none;top=0;left=0;bottom=0;right=0;" parent="Jwxpb0Jw1F68lGEl7W2q-197" vertex="1">
          <mxGeometry x="57" width="14" height="14" as="geometry" />
        </mxCell>
        <mxCell id="Jwxpb0Jw1F68lGEl7W2q-203" value="" style="shape=partialRectangle;html=1;whiteSpace=wrap;connectable=0;overflow=hidden;fillColor=none;top=0;left=0;bottom=0;right=0;" parent="Jwxpb0Jw1F68lGEl7W2q-197" vertex="1">
          <mxGeometry x="71" width="15" height="14" as="geometry" />
        </mxCell>
        <mxCell id="Jwxpb0Jw1F68lGEl7W2q-204" value="" style="shape=partialRectangle;html=1;whiteSpace=wrap;connectable=0;overflow=hidden;fillColor=none;top=0;left=0;bottom=0;right=0;" parent="Jwxpb0Jw1F68lGEl7W2q-197" vertex="1">
          <mxGeometry x="86" width="14" height="14" as="geometry" />
        </mxCell>
        <mxCell id="Jwxpb0Jw1F68lGEl7W2q-205" value="" style="shape=partialRectangle;html=1;whiteSpace=wrap;connectable=0;overflow=hidden;fillColor=none;top=0;left=0;bottom=0;right=0;" parent="Jwxpb0Jw1F68lGEl7W2q-197" vertex="1">
          <mxGeometry x="100" width="14" height="14" as="geometry" />
        </mxCell>
        <mxCell id="Jwxpb0Jw1F68lGEl7W2q-206" value="" style="shape=partialRectangle;html=1;whiteSpace=wrap;connectable=0;overflow=hidden;fillColor=none;top=0;left=0;bottom=0;right=0;" parent="Jwxpb0Jw1F68lGEl7W2q-197" vertex="1">
          <mxGeometry x="114" width="15" height="14" as="geometry" />
        </mxCell>
        <mxCell id="Jwxpb0Jw1F68lGEl7W2q-207" value="" style="shape=partialRectangle;html=1;whiteSpace=wrap;connectable=0;overflow=hidden;fillColor=none;top=0;left=0;bottom=0;right=0;" parent="Jwxpb0Jw1F68lGEl7W2q-197" vertex="1">
          <mxGeometry x="129" width="14" height="14" as="geometry" />
        </mxCell>
        <mxCell id="Jwxpb0Jw1F68lGEl7W2q-208" value="" style="shape=partialRectangle;html=1;whiteSpace=wrap;connectable=0;overflow=hidden;fillColor=none;top=0;left=0;bottom=0;right=0;" parent="Jwxpb0Jw1F68lGEl7W2q-197" vertex="1">
          <mxGeometry x="143" width="14" height="14" as="geometry" />
        </mxCell>
        <mxCell id="Jwxpb0Jw1F68lGEl7W2q-209" value="" style="shape=partialRectangle;html=1;whiteSpace=wrap;connectable=0;overflow=hidden;fillColor=none;top=0;left=0;bottom=0;right=0;" parent="Jwxpb0Jw1F68lGEl7W2q-197" vertex="1">
          <mxGeometry x="157" width="14" height="14" as="geometry" />
        </mxCell>
        <mxCell id="Jwxpb0Jw1F68lGEl7W2q-210" value="" style="shape=partialRectangle;html=1;whiteSpace=wrap;connectable=0;overflow=hidden;fillColor=none;top=0;left=0;bottom=0;right=0;" parent="Jwxpb0Jw1F68lGEl7W2q-197" vertex="1">
          <mxGeometry x="171" width="15" height="14" as="geometry" />
        </mxCell>
        <mxCell id="Jwxpb0Jw1F68lGEl7W2q-211" value="" style="shape=partialRectangle;html=1;whiteSpace=wrap;connectable=0;overflow=hidden;fillColor=none;top=0;left=0;bottom=0;right=0;" parent="Jwxpb0Jw1F68lGEl7W2q-197" vertex="1">
          <mxGeometry x="186" width="14" height="14" as="geometry" />
        </mxCell>
        <mxCell id="Jwxpb0Jw1F68lGEl7W2q-212" value="" style="shape=partialRectangle;html=1;whiteSpace=wrap;collapsible=0;dropTarget=0;pointerEvents=0;fillColor=none;top=0;left=0;bottom=0;right=0;points=[[0,0.5],[1,0.5]];portConstraint=eastwest;" parent="Jwxpb0Jw1F68lGEl7W2q-196" vertex="1">
          <mxGeometry y="14" width="200" height="14" as="geometry" />
        </mxCell>
        <mxCell id="Jwxpb0Jw1F68lGEl7W2q-213" value="" style="shape=partialRectangle;html=1;whiteSpace=wrap;connectable=0;overflow=hidden;fillColor=none;top=0;left=0;bottom=0;right=0;" parent="Jwxpb0Jw1F68lGEl7W2q-212" vertex="1">
          <mxGeometry width="14" height="14" as="geometry" />
        </mxCell>
        <mxCell id="Jwxpb0Jw1F68lGEl7W2q-214" value="" style="shape=partialRectangle;html=1;whiteSpace=wrap;connectable=0;overflow=hidden;fillColor=none;top=0;left=0;bottom=0;right=0;" parent="Jwxpb0Jw1F68lGEl7W2q-212" vertex="1">
          <mxGeometry x="14" width="15" height="14" as="geometry" />
        </mxCell>
        <mxCell id="Jwxpb0Jw1F68lGEl7W2q-215" value="" style="shape=partialRectangle;html=1;whiteSpace=wrap;connectable=0;overflow=hidden;fillColor=none;top=0;left=0;bottom=0;right=0;" parent="Jwxpb0Jw1F68lGEl7W2q-212" vertex="1">
          <mxGeometry x="29" width="14" height="14" as="geometry" />
        </mxCell>
        <mxCell id="Jwxpb0Jw1F68lGEl7W2q-216" value="" style="shape=partialRectangle;html=1;whiteSpace=wrap;connectable=0;overflow=hidden;fillColor=none;top=0;left=0;bottom=0;right=0;" parent="Jwxpb0Jw1F68lGEl7W2q-212" vertex="1">
          <mxGeometry x="43" width="14" height="14" as="geometry" />
        </mxCell>
        <mxCell id="Jwxpb0Jw1F68lGEl7W2q-217" value="" style="shape=partialRectangle;html=1;whiteSpace=wrap;connectable=0;overflow=hidden;fillColor=none;top=0;left=0;bottom=0;right=0;" parent="Jwxpb0Jw1F68lGEl7W2q-212" vertex="1">
          <mxGeometry x="57" width="14" height="14" as="geometry" />
        </mxCell>
        <mxCell id="Jwxpb0Jw1F68lGEl7W2q-218" value="" style="shape=partialRectangle;html=1;whiteSpace=wrap;connectable=0;overflow=hidden;fillColor=none;top=0;left=0;bottom=0;right=0;" parent="Jwxpb0Jw1F68lGEl7W2q-212" vertex="1">
          <mxGeometry x="71" width="15" height="14" as="geometry" />
        </mxCell>
        <mxCell id="Jwxpb0Jw1F68lGEl7W2q-219" value="" style="shape=partialRectangle;html=1;whiteSpace=wrap;connectable=0;overflow=hidden;fillColor=none;top=0;left=0;bottom=0;right=0;" parent="Jwxpb0Jw1F68lGEl7W2q-212" vertex="1">
          <mxGeometry x="86" width="14" height="14" as="geometry" />
        </mxCell>
        <mxCell id="Jwxpb0Jw1F68lGEl7W2q-220" value="" style="shape=partialRectangle;html=1;whiteSpace=wrap;connectable=0;overflow=hidden;fillColor=none;top=0;left=0;bottom=0;right=0;" parent="Jwxpb0Jw1F68lGEl7W2q-212" vertex="1">
          <mxGeometry x="100" width="14" height="14" as="geometry" />
        </mxCell>
        <mxCell id="Jwxpb0Jw1F68lGEl7W2q-221" value="" style="shape=partialRectangle;html=1;whiteSpace=wrap;connectable=0;overflow=hidden;fillColor=none;top=0;left=0;bottom=0;right=0;" parent="Jwxpb0Jw1F68lGEl7W2q-212" vertex="1">
          <mxGeometry x="114" width="15" height="14" as="geometry" />
        </mxCell>
        <mxCell id="Jwxpb0Jw1F68lGEl7W2q-222" value="" style="shape=partialRectangle;html=1;whiteSpace=wrap;connectable=0;overflow=hidden;fillColor=none;top=0;left=0;bottom=0;right=0;" parent="Jwxpb0Jw1F68lGEl7W2q-212" vertex="1">
          <mxGeometry x="129" width="14" height="14" as="geometry" />
        </mxCell>
        <mxCell id="Jwxpb0Jw1F68lGEl7W2q-223" value="" style="shape=partialRectangle;html=1;whiteSpace=wrap;connectable=0;overflow=hidden;fillColor=none;top=0;left=0;bottom=0;right=0;" parent="Jwxpb0Jw1F68lGEl7W2q-212" vertex="1">
          <mxGeometry x="143" width="14" height="14" as="geometry" />
        </mxCell>
        <mxCell id="Jwxpb0Jw1F68lGEl7W2q-224" value="" style="shape=partialRectangle;html=1;whiteSpace=wrap;connectable=0;overflow=hidden;fillColor=none;top=0;left=0;bottom=0;right=0;" parent="Jwxpb0Jw1F68lGEl7W2q-212" vertex="1">
          <mxGeometry x="157" width="14" height="14" as="geometry" />
        </mxCell>
        <mxCell id="Jwxpb0Jw1F68lGEl7W2q-225" value="" style="shape=partialRectangle;html=1;whiteSpace=wrap;connectable=0;overflow=hidden;fillColor=none;top=0;left=0;bottom=0;right=0;" parent="Jwxpb0Jw1F68lGEl7W2q-212" vertex="1">
          <mxGeometry x="171" width="15" height="14" as="geometry" />
        </mxCell>
        <mxCell id="Jwxpb0Jw1F68lGEl7W2q-226" value="" style="shape=partialRectangle;html=1;whiteSpace=wrap;connectable=0;overflow=hidden;fillColor=none;top=0;left=0;bottom=0;right=0;" parent="Jwxpb0Jw1F68lGEl7W2q-212" vertex="1">
          <mxGeometry x="186" width="14" height="14" as="geometry" />
        </mxCell>
        <mxCell id="Jwxpb0Jw1F68lGEl7W2q-227" value="" style="shape=partialRectangle;html=1;whiteSpace=wrap;collapsible=0;dropTarget=0;pointerEvents=0;fillColor=none;top=0;left=0;bottom=0;right=0;points=[[0,0.5],[1,0.5]];portConstraint=eastwest;" parent="Jwxpb0Jw1F68lGEl7W2q-196" vertex="1">
          <mxGeometry y="28" width="200" height="14" as="geometry" />
        </mxCell>
        <mxCell id="Jwxpb0Jw1F68lGEl7W2q-228" value="" style="shape=partialRectangle;html=1;whiteSpace=wrap;connectable=0;overflow=hidden;fillColor=none;top=0;left=0;bottom=0;right=0;" parent="Jwxpb0Jw1F68lGEl7W2q-227" vertex="1">
          <mxGeometry width="14" height="14" as="geometry" />
        </mxCell>
        <mxCell id="Jwxpb0Jw1F68lGEl7W2q-229" value="" style="shape=partialRectangle;html=1;whiteSpace=wrap;connectable=0;overflow=hidden;fillColor=none;top=0;left=0;bottom=0;right=0;" parent="Jwxpb0Jw1F68lGEl7W2q-227" vertex="1">
          <mxGeometry x="14" width="15" height="14" as="geometry" />
        </mxCell>
        <mxCell id="Jwxpb0Jw1F68lGEl7W2q-230" value="" style="shape=partialRectangle;html=1;whiteSpace=wrap;connectable=0;overflow=hidden;fillColor=none;top=0;left=0;bottom=0;right=0;" parent="Jwxpb0Jw1F68lGEl7W2q-227" vertex="1">
          <mxGeometry x="29" width="14" height="14" as="geometry" />
        </mxCell>
        <mxCell id="Jwxpb0Jw1F68lGEl7W2q-231" value="" style="shape=partialRectangle;html=1;whiteSpace=wrap;connectable=0;overflow=hidden;fillColor=none;top=0;left=0;bottom=0;right=0;" parent="Jwxpb0Jw1F68lGEl7W2q-227" vertex="1">
          <mxGeometry x="43" width="14" height="14" as="geometry" />
        </mxCell>
        <mxCell id="Jwxpb0Jw1F68lGEl7W2q-232" value="" style="shape=partialRectangle;html=1;whiteSpace=wrap;connectable=0;overflow=hidden;fillColor=none;top=0;left=0;bottom=0;right=0;" parent="Jwxpb0Jw1F68lGEl7W2q-227" vertex="1">
          <mxGeometry x="57" width="14" height="14" as="geometry" />
        </mxCell>
        <mxCell id="Jwxpb0Jw1F68lGEl7W2q-233" value="" style="shape=partialRectangle;html=1;whiteSpace=wrap;connectable=0;overflow=hidden;fillColor=none;top=0;left=0;bottom=0;right=0;" parent="Jwxpb0Jw1F68lGEl7W2q-227" vertex="1">
          <mxGeometry x="71" width="15" height="14" as="geometry" />
        </mxCell>
        <mxCell id="Jwxpb0Jw1F68lGEl7W2q-234" value="" style="shape=partialRectangle;html=1;whiteSpace=wrap;connectable=0;overflow=hidden;fillColor=none;top=0;left=0;bottom=0;right=0;" parent="Jwxpb0Jw1F68lGEl7W2q-227" vertex="1">
          <mxGeometry x="86" width="14" height="14" as="geometry" />
        </mxCell>
        <mxCell id="Jwxpb0Jw1F68lGEl7W2q-235" value="" style="shape=partialRectangle;html=1;whiteSpace=wrap;connectable=0;overflow=hidden;fillColor=none;top=0;left=0;bottom=0;right=0;" parent="Jwxpb0Jw1F68lGEl7W2q-227" vertex="1">
          <mxGeometry x="100" width="14" height="14" as="geometry" />
        </mxCell>
        <mxCell id="Jwxpb0Jw1F68lGEl7W2q-236" value="" style="shape=partialRectangle;html=1;whiteSpace=wrap;connectable=0;overflow=hidden;fillColor=none;top=0;left=0;bottom=0;right=0;" parent="Jwxpb0Jw1F68lGEl7W2q-227" vertex="1">
          <mxGeometry x="114" width="15" height="14" as="geometry" />
        </mxCell>
        <mxCell id="Jwxpb0Jw1F68lGEl7W2q-237" value="" style="shape=partialRectangle;html=1;whiteSpace=wrap;connectable=0;overflow=hidden;fillColor=none;top=0;left=0;bottom=0;right=0;" parent="Jwxpb0Jw1F68lGEl7W2q-227" vertex="1">
          <mxGeometry x="129" width="14" height="14" as="geometry" />
        </mxCell>
        <mxCell id="Jwxpb0Jw1F68lGEl7W2q-238" value="" style="shape=partialRectangle;html=1;whiteSpace=wrap;connectable=0;overflow=hidden;fillColor=none;top=0;left=0;bottom=0;right=0;" parent="Jwxpb0Jw1F68lGEl7W2q-227" vertex="1">
          <mxGeometry x="143" width="14" height="14" as="geometry" />
        </mxCell>
        <mxCell id="Jwxpb0Jw1F68lGEl7W2q-239" value="" style="shape=partialRectangle;html=1;whiteSpace=wrap;connectable=0;overflow=hidden;fillColor=none;top=0;left=0;bottom=0;right=0;" parent="Jwxpb0Jw1F68lGEl7W2q-227" vertex="1">
          <mxGeometry x="157" width="14" height="14" as="geometry" />
        </mxCell>
        <mxCell id="Jwxpb0Jw1F68lGEl7W2q-240" value="" style="shape=partialRectangle;html=1;whiteSpace=wrap;connectable=0;overflow=hidden;fillColor=none;top=0;left=0;bottom=0;right=0;" parent="Jwxpb0Jw1F68lGEl7W2q-227" vertex="1">
          <mxGeometry x="171" width="15" height="14" as="geometry" />
        </mxCell>
        <mxCell id="Jwxpb0Jw1F68lGEl7W2q-241" value="" style="shape=partialRectangle;html=1;whiteSpace=wrap;connectable=0;overflow=hidden;fillColor=none;top=0;left=0;bottom=0;right=0;" parent="Jwxpb0Jw1F68lGEl7W2q-227" vertex="1">
          <mxGeometry x="186" width="14" height="14" as="geometry" />
        </mxCell>
        <mxCell id="Jwxpb0Jw1F68lGEl7W2q-242" value="" style="shape=partialRectangle;html=1;whiteSpace=wrap;collapsible=0;dropTarget=0;pointerEvents=0;fillColor=none;top=0;left=0;bottom=0;right=0;points=[[0,0.5],[1,0.5]];portConstraint=eastwest;" parent="Jwxpb0Jw1F68lGEl7W2q-196" vertex="1">
          <mxGeometry y="42" width="200" height="14" as="geometry" />
        </mxCell>
        <mxCell id="Jwxpb0Jw1F68lGEl7W2q-243" value="" style="shape=partialRectangle;html=1;whiteSpace=wrap;connectable=0;overflow=hidden;fillColor=none;top=0;left=0;bottom=0;right=0;" parent="Jwxpb0Jw1F68lGEl7W2q-242" vertex="1">
          <mxGeometry width="14" height="14" as="geometry" />
        </mxCell>
        <mxCell id="Jwxpb0Jw1F68lGEl7W2q-244" value="" style="shape=partialRectangle;html=1;whiteSpace=wrap;connectable=0;overflow=hidden;fillColor=none;top=0;left=0;bottom=0;right=0;" parent="Jwxpb0Jw1F68lGEl7W2q-242" vertex="1">
          <mxGeometry x="14" width="15" height="14" as="geometry" />
        </mxCell>
        <mxCell id="Jwxpb0Jw1F68lGEl7W2q-245" value="" style="shape=partialRectangle;html=1;whiteSpace=wrap;connectable=0;overflow=hidden;fillColor=none;top=0;left=0;bottom=0;right=0;" parent="Jwxpb0Jw1F68lGEl7W2q-242" vertex="1">
          <mxGeometry x="29" width="14" height="14" as="geometry" />
        </mxCell>
        <mxCell id="Jwxpb0Jw1F68lGEl7W2q-246" value="" style="shape=partialRectangle;html=1;whiteSpace=wrap;connectable=0;overflow=hidden;fillColor=none;top=0;left=0;bottom=0;right=0;" parent="Jwxpb0Jw1F68lGEl7W2q-242" vertex="1">
          <mxGeometry x="43" width="14" height="14" as="geometry" />
        </mxCell>
        <mxCell id="Jwxpb0Jw1F68lGEl7W2q-247" value="" style="shape=partialRectangle;html=1;whiteSpace=wrap;connectable=0;overflow=hidden;fillColor=none;top=0;left=0;bottom=0;right=0;" parent="Jwxpb0Jw1F68lGEl7W2q-242" vertex="1">
          <mxGeometry x="57" width="14" height="14" as="geometry" />
        </mxCell>
        <mxCell id="Jwxpb0Jw1F68lGEl7W2q-248" value="" style="shape=partialRectangle;html=1;whiteSpace=wrap;connectable=0;overflow=hidden;fillColor=none;top=0;left=0;bottom=0;right=0;" parent="Jwxpb0Jw1F68lGEl7W2q-242" vertex="1">
          <mxGeometry x="71" width="15" height="14" as="geometry" />
        </mxCell>
        <mxCell id="Jwxpb0Jw1F68lGEl7W2q-249" value="" style="shape=partialRectangle;html=1;whiteSpace=wrap;connectable=0;overflow=hidden;fillColor=none;top=0;left=0;bottom=0;right=0;" parent="Jwxpb0Jw1F68lGEl7W2q-242" vertex="1">
          <mxGeometry x="86" width="14" height="14" as="geometry" />
        </mxCell>
        <mxCell id="Jwxpb0Jw1F68lGEl7W2q-250" value="" style="shape=partialRectangle;html=1;whiteSpace=wrap;connectable=0;overflow=hidden;fillColor=none;top=0;left=0;bottom=0;right=0;" parent="Jwxpb0Jw1F68lGEl7W2q-242" vertex="1">
          <mxGeometry x="100" width="14" height="14" as="geometry" />
        </mxCell>
        <mxCell id="Jwxpb0Jw1F68lGEl7W2q-251" value="" style="shape=partialRectangle;html=1;whiteSpace=wrap;connectable=0;overflow=hidden;fillColor=none;top=0;left=0;bottom=0;right=0;" parent="Jwxpb0Jw1F68lGEl7W2q-242" vertex="1">
          <mxGeometry x="114" width="15" height="14" as="geometry" />
        </mxCell>
        <mxCell id="Jwxpb0Jw1F68lGEl7W2q-252" value="" style="shape=partialRectangle;html=1;whiteSpace=wrap;connectable=0;overflow=hidden;fillColor=none;top=0;left=0;bottom=0;right=0;" parent="Jwxpb0Jw1F68lGEl7W2q-242" vertex="1">
          <mxGeometry x="129" width="14" height="14" as="geometry" />
        </mxCell>
        <mxCell id="Jwxpb0Jw1F68lGEl7W2q-253" value="" style="shape=partialRectangle;html=1;whiteSpace=wrap;connectable=0;overflow=hidden;fillColor=none;top=0;left=0;bottom=0;right=0;" parent="Jwxpb0Jw1F68lGEl7W2q-242" vertex="1">
          <mxGeometry x="143" width="14" height="14" as="geometry" />
        </mxCell>
        <mxCell id="Jwxpb0Jw1F68lGEl7W2q-254" value="" style="shape=partialRectangle;html=1;whiteSpace=wrap;connectable=0;overflow=hidden;fillColor=none;top=0;left=0;bottom=0;right=0;" parent="Jwxpb0Jw1F68lGEl7W2q-242" vertex="1">
          <mxGeometry x="157" width="14" height="14" as="geometry" />
        </mxCell>
        <mxCell id="Jwxpb0Jw1F68lGEl7W2q-255" value="" style="shape=partialRectangle;html=1;whiteSpace=wrap;connectable=0;overflow=hidden;fillColor=none;top=0;left=0;bottom=0;right=0;" parent="Jwxpb0Jw1F68lGEl7W2q-242" vertex="1">
          <mxGeometry x="171" width="15" height="14" as="geometry" />
        </mxCell>
        <mxCell id="Jwxpb0Jw1F68lGEl7W2q-256" value="" style="shape=partialRectangle;html=1;whiteSpace=wrap;connectable=0;overflow=hidden;fillColor=none;top=0;left=0;bottom=0;right=0;" parent="Jwxpb0Jw1F68lGEl7W2q-242" vertex="1">
          <mxGeometry x="186" width="14" height="14" as="geometry" />
        </mxCell>
        <mxCell id="Jwxpb0Jw1F68lGEl7W2q-257" value="" style="shape=partialRectangle;html=1;whiteSpace=wrap;collapsible=0;dropTarget=0;pointerEvents=0;fillColor=none;top=0;left=0;bottom=0;right=0;points=[[0,0.5],[1,0.5]];portConstraint=eastwest;" parent="Jwxpb0Jw1F68lGEl7W2q-196" vertex="1">
          <mxGeometry y="56" width="200" height="14" as="geometry" />
        </mxCell>
        <mxCell id="Jwxpb0Jw1F68lGEl7W2q-258" value="" style="shape=partialRectangle;html=1;whiteSpace=wrap;connectable=0;overflow=hidden;fillColor=none;top=0;left=0;bottom=0;right=0;" parent="Jwxpb0Jw1F68lGEl7W2q-257" vertex="1">
          <mxGeometry width="14" height="14" as="geometry" />
        </mxCell>
        <mxCell id="Jwxpb0Jw1F68lGEl7W2q-259" value="" style="shape=partialRectangle;html=1;whiteSpace=wrap;connectable=0;overflow=hidden;fillColor=none;top=0;left=0;bottom=0;right=0;" parent="Jwxpb0Jw1F68lGEl7W2q-257" vertex="1">
          <mxGeometry x="14" width="15" height="14" as="geometry" />
        </mxCell>
        <mxCell id="Jwxpb0Jw1F68lGEl7W2q-260" value="" style="shape=partialRectangle;html=1;whiteSpace=wrap;connectable=0;overflow=hidden;fillColor=none;top=0;left=0;bottom=0;right=0;" parent="Jwxpb0Jw1F68lGEl7W2q-257" vertex="1">
          <mxGeometry x="29" width="14" height="14" as="geometry" />
        </mxCell>
        <mxCell id="Jwxpb0Jw1F68lGEl7W2q-261" value="" style="shape=partialRectangle;html=1;whiteSpace=wrap;connectable=0;overflow=hidden;fillColor=none;top=0;left=0;bottom=0;right=0;" parent="Jwxpb0Jw1F68lGEl7W2q-257" vertex="1">
          <mxGeometry x="43" width="14" height="14" as="geometry" />
        </mxCell>
        <mxCell id="Jwxpb0Jw1F68lGEl7W2q-262" value="" style="shape=partialRectangle;html=1;whiteSpace=wrap;connectable=0;overflow=hidden;fillColor=none;top=0;left=0;bottom=0;right=0;" parent="Jwxpb0Jw1F68lGEl7W2q-257" vertex="1">
          <mxGeometry x="57" width="14" height="14" as="geometry" />
        </mxCell>
        <mxCell id="Jwxpb0Jw1F68lGEl7W2q-263" value="" style="shape=partialRectangle;html=1;whiteSpace=wrap;connectable=0;overflow=hidden;fillColor=none;top=0;left=0;bottom=0;right=0;" parent="Jwxpb0Jw1F68lGEl7W2q-257" vertex="1">
          <mxGeometry x="71" width="15" height="14" as="geometry" />
        </mxCell>
        <mxCell id="Jwxpb0Jw1F68lGEl7W2q-264" value="" style="shape=partialRectangle;html=1;whiteSpace=wrap;connectable=0;overflow=hidden;fillColor=none;top=0;left=0;bottom=0;right=0;" parent="Jwxpb0Jw1F68lGEl7W2q-257" vertex="1">
          <mxGeometry x="86" width="14" height="14" as="geometry" />
        </mxCell>
        <mxCell id="Jwxpb0Jw1F68lGEl7W2q-265" value="" style="shape=partialRectangle;html=1;whiteSpace=wrap;connectable=0;overflow=hidden;fillColor=none;top=0;left=0;bottom=0;right=0;" parent="Jwxpb0Jw1F68lGEl7W2q-257" vertex="1">
          <mxGeometry x="100" width="14" height="14" as="geometry" />
        </mxCell>
        <mxCell id="Jwxpb0Jw1F68lGEl7W2q-266" value="" style="shape=partialRectangle;html=1;whiteSpace=wrap;connectable=0;overflow=hidden;fillColor=none;top=0;left=0;bottom=0;right=0;" parent="Jwxpb0Jw1F68lGEl7W2q-257" vertex="1">
          <mxGeometry x="114" width="15" height="14" as="geometry" />
        </mxCell>
        <mxCell id="Jwxpb0Jw1F68lGEl7W2q-267" value="" style="shape=partialRectangle;html=1;whiteSpace=wrap;connectable=0;overflow=hidden;fillColor=none;top=0;left=0;bottom=0;right=0;" parent="Jwxpb0Jw1F68lGEl7W2q-257" vertex="1">
          <mxGeometry x="129" width="14" height="14" as="geometry" />
        </mxCell>
        <mxCell id="Jwxpb0Jw1F68lGEl7W2q-268" value="" style="shape=partialRectangle;html=1;whiteSpace=wrap;connectable=0;overflow=hidden;fillColor=none;top=0;left=0;bottom=0;right=0;" parent="Jwxpb0Jw1F68lGEl7W2q-257" vertex="1">
          <mxGeometry x="143" width="14" height="14" as="geometry" />
        </mxCell>
        <mxCell id="Jwxpb0Jw1F68lGEl7W2q-269" value="" style="shape=partialRectangle;html=1;whiteSpace=wrap;connectable=0;overflow=hidden;fillColor=none;top=0;left=0;bottom=0;right=0;" parent="Jwxpb0Jw1F68lGEl7W2q-257" vertex="1">
          <mxGeometry x="157" width="14" height="14" as="geometry" />
        </mxCell>
        <mxCell id="Jwxpb0Jw1F68lGEl7W2q-270" value="" style="shape=partialRectangle;html=1;whiteSpace=wrap;connectable=0;overflow=hidden;fillColor=none;top=0;left=0;bottom=0;right=0;" parent="Jwxpb0Jw1F68lGEl7W2q-257" vertex="1">
          <mxGeometry x="171" width="15" height="14" as="geometry" />
        </mxCell>
        <mxCell id="Jwxpb0Jw1F68lGEl7W2q-271" value="" style="shape=partialRectangle;html=1;whiteSpace=wrap;connectable=0;overflow=hidden;fillColor=none;top=0;left=0;bottom=0;right=0;" parent="Jwxpb0Jw1F68lGEl7W2q-257" vertex="1">
          <mxGeometry x="186" width="14" height="14" as="geometry" />
        </mxCell>
        <mxCell id="Jwxpb0Jw1F68lGEl7W2q-361" value="" style="strokeWidth=1;html=1;shape=mxgraph.flowchart.annotation_2;align=left;labelPosition=right;pointerEvents=1;shadow=0;glass=0;fillColor=none;gradientColor=#ffffff;rotation=90;" parent="1" vertex="1">
          <mxGeometry x="258" y="290" width="25.5" height="43" as="geometry" />
        </mxCell>
        <mxCell id="Jwxpb0Jw1F68lGEl7W2q-362" value="(1x3) kernels" style="text;html=1;strokeColor=none;fillColor=none;align=center;verticalAlign=middle;whiteSpace=wrap;rounded=0;" parent="1" vertex="1">
          <mxGeometry x="231.75" y="280" width="75" height="20" as="geometry" />
        </mxCell>
        <mxCell id="Jwxpb0Jw1F68lGEl7W2q-460" value="Feature map (1x12)" style="text;html=1;strokeColor=none;fillColor=none;align=center;verticalAlign=middle;whiteSpace=wrap;rounded=0;" parent="1" vertex="1">
          <mxGeometry x="529" y="110" width="121" height="20" as="geometry" />
        </mxCell>
        <mxCell id="Jwxpb0Jw1F68lGEl7W2q-464" value="" style="shape=table;html=1;whiteSpace=wrap;startSize=0;container=1;collapsible=0;childLayout=tableLayout;" parent="1" vertex="1">
          <mxGeometry x="492" y="137" width="171" height="14" as="geometry" />
        </mxCell>
        <mxCell id="Jwxpb0Jw1F68lGEl7W2q-465" value="" style="shape=partialRectangle;html=1;whiteSpace=wrap;collapsible=0;dropTarget=0;pointerEvents=0;fillColor=none;top=0;left=0;bottom=0;right=0;points=[[0,0.5],[1,0.5]];portConstraint=eastwest;" parent="Jwxpb0Jw1F68lGEl7W2q-464" vertex="1">
          <mxGeometry width="171" height="14" as="geometry" />
        </mxCell>
        <mxCell id="Jwxpb0Jw1F68lGEl7W2q-466" value="" style="shape=partialRectangle;html=1;whiteSpace=wrap;connectable=0;overflow=hidden;fillColor=none;top=0;left=0;bottom=0;right=0;" parent="Jwxpb0Jw1F68lGEl7W2q-465" vertex="1">
          <mxGeometry width="14" height="14" as="geometry" />
        </mxCell>
        <mxCell id="Jwxpb0Jw1F68lGEl7W2q-467" value="" style="shape=partialRectangle;html=1;whiteSpace=wrap;connectable=0;overflow=hidden;fillColor=none;top=0;left=0;bottom=0;right=0;" parent="Jwxpb0Jw1F68lGEl7W2q-465" vertex="1">
          <mxGeometry x="14" width="14" height="14" as="geometry" />
        </mxCell>
        <mxCell id="Jwxpb0Jw1F68lGEl7W2q-468" value="" style="shape=partialRectangle;html=1;whiteSpace=wrap;connectable=0;overflow=hidden;fillColor=none;top=0;left=0;bottom=0;right=0;" parent="Jwxpb0Jw1F68lGEl7W2q-465" vertex="1">
          <mxGeometry x="28" width="15" height="14" as="geometry" />
        </mxCell>
        <mxCell id="Jwxpb0Jw1F68lGEl7W2q-469" value="" style="shape=partialRectangle;html=1;whiteSpace=wrap;connectable=0;overflow=hidden;fillColor=none;top=0;left=0;bottom=0;right=0;" parent="Jwxpb0Jw1F68lGEl7W2q-465" vertex="1">
          <mxGeometry x="43" width="14" height="14" as="geometry" />
        </mxCell>
        <mxCell id="Jwxpb0Jw1F68lGEl7W2q-470" value="" style="shape=partialRectangle;html=1;whiteSpace=wrap;connectable=0;overflow=hidden;fillColor=none;top=0;left=0;bottom=0;right=0;" parent="Jwxpb0Jw1F68lGEl7W2q-465" vertex="1">
          <mxGeometry x="57" width="14" height="14" as="geometry" />
        </mxCell>
        <mxCell id="Jwxpb0Jw1F68lGEl7W2q-471" value="" style="shape=partialRectangle;html=1;whiteSpace=wrap;connectable=0;overflow=hidden;fillColor=none;top=0;left=0;bottom=0;right=0;" parent="Jwxpb0Jw1F68lGEl7W2q-465" vertex="1">
          <mxGeometry x="71" width="14" height="14" as="geometry" />
        </mxCell>
        <mxCell id="Jwxpb0Jw1F68lGEl7W2q-472" value="" style="shape=partialRectangle;html=1;whiteSpace=wrap;connectable=0;overflow=hidden;fillColor=none;top=0;left=0;bottom=0;right=0;" parent="Jwxpb0Jw1F68lGEl7W2q-465" vertex="1">
          <mxGeometry x="85" width="15" height="14" as="geometry" />
        </mxCell>
        <mxCell id="Jwxpb0Jw1F68lGEl7W2q-473" value="" style="shape=partialRectangle;html=1;whiteSpace=wrap;connectable=0;overflow=hidden;fillColor=none;top=0;left=0;bottom=0;right=0;" parent="Jwxpb0Jw1F68lGEl7W2q-465" vertex="1">
          <mxGeometry x="100" width="14" height="14" as="geometry" />
        </mxCell>
        <mxCell id="Jwxpb0Jw1F68lGEl7W2q-474" value="" style="shape=partialRectangle;html=1;whiteSpace=wrap;connectable=0;overflow=hidden;fillColor=none;top=0;left=0;bottom=0;right=0;" parent="Jwxpb0Jw1F68lGEl7W2q-465" vertex="1">
          <mxGeometry x="114" width="15" height="14" as="geometry" />
        </mxCell>
        <mxCell id="Jwxpb0Jw1F68lGEl7W2q-475" value="" style="shape=partialRectangle;html=1;whiteSpace=wrap;connectable=0;overflow=hidden;fillColor=none;top=0;left=0;bottom=0;right=0;" parent="Jwxpb0Jw1F68lGEl7W2q-465" vertex="1">
          <mxGeometry x="129" width="14" height="14" as="geometry" />
        </mxCell>
        <mxCell id="Jwxpb0Jw1F68lGEl7W2q-476" value="" style="shape=partialRectangle;html=1;whiteSpace=wrap;connectable=0;overflow=hidden;fillColor=none;top=0;left=0;bottom=0;right=0;" parent="Jwxpb0Jw1F68lGEl7W2q-465" vertex="1">
          <mxGeometry x="143" width="14" height="14" as="geometry" />
        </mxCell>
        <mxCell id="Jwxpb0Jw1F68lGEl7W2q-477" value="" style="shape=partialRectangle;html=1;whiteSpace=wrap;connectable=0;overflow=hidden;fillColor=none;top=0;left=0;bottom=0;right=0;" parent="Jwxpb0Jw1F68lGEl7W2q-465" vertex="1">
          <mxGeometry x="157" width="14" height="14" as="geometry" />
        </mxCell>
        <mxCell id="Jwxpb0Jw1F68lGEl7W2q-483" value="&lt;div&gt;EEG Channels (5)&lt;/div&gt;" style="text;html=1;strokeColor=none;fillColor=none;align=center;verticalAlign=middle;whiteSpace=wrap;rounded=0;rotation=-90;" parent="1" vertex="1">
          <mxGeometry x="160" y="391" width="110" height="20" as="geometry" />
        </mxCell>
        <mxCell id="Jwxpb0Jw1F68lGEl7W2q-484" style="edgeStyle=orthogonalEdgeStyle;rounded=0;orthogonalLoop=1;jettySize=auto;html=1;exitX=1;exitY=0.5;exitDx=0;exitDy=0;" parent="1" source="Jwxpb0Jw1F68lGEl7W2q-485" edge="1">
          <mxGeometry relative="1" as="geometry">
            <mxPoint x="391.5" y="489.8571428571429" as="targetPoint" />
          </mxGeometry>
        </mxCell>
        <mxCell id="Jwxpb0Jw1F68lGEl7W2q-485" value="Time (14)" style="text;html=1;strokeColor=none;fillColor=none;align=center;verticalAlign=middle;whiteSpace=wrap;rounded=0;" parent="1" vertex="1">
          <mxGeometry x="279.5" y="480" width="62" height="20" as="geometry" />
        </mxCell>
        <mxCell id="Jwxpb0Jw1F68lGEl7W2q-487" value="" style="endArrow=classic;html=1;exitX=1;exitY=0.5;exitDx=0;exitDy=0;entryX=0;entryY=0.5;entryDx=0;entryDy=0;" parent="1" source="Jwxpb0Jw1F68lGEl7W2q-273" target="Jwxpb0Jw1F68lGEl7W2q-503" edge="1">
          <mxGeometry width="50" height="50" relative="1" as="geometry">
            <mxPoint x="450" y="337.36" as="sourcePoint" />
            <mxPoint x="480" y="337.36" as="targetPoint" />
          </mxGeometry>
        </mxCell>
        <mxCell id="Jwxpb0Jw1F68lGEl7W2q-488" value="" style="endArrow=classic;html=1;" parent="1" edge="1">
          <mxGeometry width="50" height="50" relative="1" as="geometry">
            <mxPoint x="450" y="143.8299999999999" as="sourcePoint" />
            <mxPoint x="480" y="143.8299999999999" as="targetPoint" />
          </mxGeometry>
        </mxCell>
        <mxCell id="Jwxpb0Jw1F68lGEl7W2q-489" value="" style="endArrow=classic;html=1;entryX=0;entryY=0.5;entryDx=0;entryDy=0;exitX=1;exitY=0.5;exitDx=0;exitDy=0;" parent="1" source="Jwxpb0Jw1F68lGEl7W2q-290" target="Jwxpb0Jw1F68lGEl7W2q-516" edge="1">
          <mxGeometry width="50" height="50" relative="1" as="geometry">
            <mxPoint x="450" y="367.36" as="sourcePoint" />
            <mxPoint x="480" y="367.36" as="targetPoint" />
          </mxGeometry>
        </mxCell>
        <mxCell id="Jwxpb0Jw1F68lGEl7W2q-490" value="" style="endArrow=classic;html=1;exitX=1;exitY=0.5;exitDx=0;exitDy=0;entryX=0;entryY=0.5;entryDx=0;entryDy=0;" parent="1" source="Jwxpb0Jw1F68lGEl7W2q-307" target="Jwxpb0Jw1F68lGEl7W2q-502" edge="1">
          <mxGeometry width="50" height="50" relative="1" as="geometry">
            <mxPoint x="450" y="397.36" as="sourcePoint" />
            <mxPoint x="480" y="397.36" as="targetPoint" />
          </mxGeometry>
        </mxCell>
        <mxCell id="Jwxpb0Jw1F68lGEl7W2q-491" value="" style="endArrow=classic;html=1;exitX=1;exitY=0.5;exitDx=0;exitDy=0;entryX=0;entryY=0.5;entryDx=0;entryDy=0;" parent="1" source="Jwxpb0Jw1F68lGEl7W2q-324" target="Jwxpb0Jw1F68lGEl7W2q-542" edge="1">
          <mxGeometry width="50" height="50" relative="1" as="geometry">
            <mxPoint x="450" y="427" as="sourcePoint" />
            <mxPoint x="480" y="427.36" as="targetPoint" />
          </mxGeometry>
        </mxCell>
        <mxCell id="Jwxpb0Jw1F68lGEl7W2q-492" value="" style="endArrow=classic;html=1;exitX=1;exitY=0.5;exitDx=0;exitDy=0;entryX=0;entryY=0.5;entryDx=0;entryDy=0;" parent="1" source="Jwxpb0Jw1F68lGEl7W2q-342" target="Jwxpb0Jw1F68lGEl7W2q-555" edge="1">
          <mxGeometry width="50" height="50" relative="1" as="geometry">
            <mxPoint x="450" y="457.36" as="sourcePoint" />
            <mxPoint x="480" y="457.36" as="targetPoint" />
          </mxGeometry>
        </mxCell>
        <mxCell id="Jwxpb0Jw1F68lGEl7W2q-494" value="" style="shape=curlyBracket;whiteSpace=wrap;html=1;rounded=1;shadow=0;glass=0;strokeColor=#000000;strokeWidth=1;fillColor=none;gradientColor=none;rotation=90;" parent="1" vertex="1">
          <mxGeometry x="323.5" y="160.5" width="20" height="213" as="geometry" />
        </mxCell>
        <mxCell id="Jwxpb0Jw1F68lGEl7W2q-495" value="Depthwise convolution" style="text;html=1;strokeColor=none;fillColor=none;align=center;verticalAlign=middle;whiteSpace=wrap;rounded=0;fontStyle=1" parent="1" vertex="1">
          <mxGeometry x="272" y="240" width="138" height="20" as="geometry" />
        </mxCell>
        <mxCell id="Jwxpb0Jw1F68lGEl7W2q-502" value="" style="shape=table;html=1;whiteSpace=wrap;startSize=0;container=1;collapsible=0;childLayout=tableLayout;fillColor=none;" parent="1" vertex="1">
          <mxGeometry x="520" y="363" width="175" height="70" as="geometry" />
        </mxCell>
        <mxCell id="Jwxpb0Jw1F68lGEl7W2q-503" value="" style="shape=partialRectangle;html=1;whiteSpace=wrap;collapsible=0;dropTarget=0;pointerEvents=0;fillColor=none;top=0;left=0;bottom=0;right=0;points=[[0,0.5],[1,0.5]];portConstraint=eastwest;" parent="Jwxpb0Jw1F68lGEl7W2q-502" vertex="1">
          <mxGeometry width="175" height="14" as="geometry" />
        </mxCell>
        <mxCell id="Jwxpb0Jw1F68lGEl7W2q-504" value="" style="shape=partialRectangle;html=1;whiteSpace=wrap;connectable=0;overflow=hidden;fillColor=none;top=0;left=0;bottom=0;right=0;" parent="Jwxpb0Jw1F68lGEl7W2q-503" vertex="1">
          <mxGeometry width="14" height="14" as="geometry" />
        </mxCell>
        <mxCell id="Jwxpb0Jw1F68lGEl7W2q-505" value="" style="shape=partialRectangle;html=1;whiteSpace=wrap;connectable=0;overflow=hidden;fillColor=none;top=0;left=0;bottom=0;right=0;" parent="Jwxpb0Jw1F68lGEl7W2q-503" vertex="1">
          <mxGeometry x="14" width="15" height="14" as="geometry" />
        </mxCell>
        <mxCell id="Jwxpb0Jw1F68lGEl7W2q-506" value="" style="shape=partialRectangle;html=1;whiteSpace=wrap;connectable=0;overflow=hidden;fillColor=none;top=0;left=0;bottom=0;right=0;" parent="Jwxpb0Jw1F68lGEl7W2q-503" vertex="1">
          <mxGeometry x="29" width="15" height="14" as="geometry" />
        </mxCell>
        <mxCell id="Jwxpb0Jw1F68lGEl7W2q-507" value="" style="shape=partialRectangle;html=1;whiteSpace=wrap;connectable=0;overflow=hidden;fillColor=none;top=0;left=0;bottom=0;right=0;" parent="Jwxpb0Jw1F68lGEl7W2q-503" vertex="1">
          <mxGeometry x="44" width="15" height="14" as="geometry" />
        </mxCell>
        <mxCell id="Jwxpb0Jw1F68lGEl7W2q-508" value="" style="shape=partialRectangle;html=1;whiteSpace=wrap;connectable=0;overflow=hidden;fillColor=none;top=0;left=0;bottom=0;right=0;" parent="Jwxpb0Jw1F68lGEl7W2q-503" vertex="1">
          <mxGeometry x="59" width="14" height="14" as="geometry" />
        </mxCell>
        <mxCell id="Jwxpb0Jw1F68lGEl7W2q-509" value="" style="shape=partialRectangle;html=1;whiteSpace=wrap;connectable=0;overflow=hidden;fillColor=none;top=0;left=0;bottom=0;right=0;" parent="Jwxpb0Jw1F68lGEl7W2q-503" vertex="1">
          <mxGeometry x="73" width="15" height="14" as="geometry" />
        </mxCell>
        <mxCell id="Jwxpb0Jw1F68lGEl7W2q-510" value="" style="shape=partialRectangle;html=1;whiteSpace=wrap;connectable=0;overflow=hidden;fillColor=none;top=0;left=0;bottom=0;right=0;" parent="Jwxpb0Jw1F68lGEl7W2q-503" vertex="1">
          <mxGeometry x="88" width="14" height="14" as="geometry" />
        </mxCell>
        <mxCell id="Jwxpb0Jw1F68lGEl7W2q-511" value="" style="shape=partialRectangle;html=1;whiteSpace=wrap;connectable=0;overflow=hidden;fillColor=none;top=0;left=0;bottom=0;right=0;" parent="Jwxpb0Jw1F68lGEl7W2q-503" vertex="1">
          <mxGeometry x="102" width="14" height="14" as="geometry" />
        </mxCell>
        <mxCell id="Jwxpb0Jw1F68lGEl7W2q-512" value="" style="shape=partialRectangle;html=1;whiteSpace=wrap;connectable=0;overflow=hidden;fillColor=none;top=0;left=0;bottom=0;right=0;" parent="Jwxpb0Jw1F68lGEl7W2q-503" vertex="1">
          <mxGeometry x="116" width="16" height="14" as="geometry" />
        </mxCell>
        <mxCell id="Jwxpb0Jw1F68lGEl7W2q-513" value="" style="shape=partialRectangle;html=1;whiteSpace=wrap;connectable=0;overflow=hidden;fillColor=none;top=0;left=0;bottom=0;right=0;" parent="Jwxpb0Jw1F68lGEl7W2q-503" vertex="1">
          <mxGeometry x="132" width="14" height="14" as="geometry" />
        </mxCell>
        <mxCell id="Jwxpb0Jw1F68lGEl7W2q-514" value="" style="shape=partialRectangle;html=1;whiteSpace=wrap;connectable=0;overflow=hidden;fillColor=none;top=0;left=0;bottom=0;right=0;" parent="Jwxpb0Jw1F68lGEl7W2q-503" vertex="1">
          <mxGeometry x="146" width="15" height="14" as="geometry" />
        </mxCell>
        <mxCell id="Jwxpb0Jw1F68lGEl7W2q-515" value="" style="shape=partialRectangle;html=1;whiteSpace=wrap;connectable=0;overflow=hidden;fillColor=none;top=0;left=0;bottom=0;right=0;" parent="Jwxpb0Jw1F68lGEl7W2q-503" vertex="1">
          <mxGeometry x="161" width="14" height="14" as="geometry" />
        </mxCell>
        <mxCell id="Jwxpb0Jw1F68lGEl7W2q-516" value="" style="shape=partialRectangle;html=1;whiteSpace=wrap;collapsible=0;dropTarget=0;pointerEvents=0;fillColor=none;top=0;left=0;bottom=0;right=0;points=[[0,0.5],[1,0.5]];portConstraint=eastwest;" parent="Jwxpb0Jw1F68lGEl7W2q-502" vertex="1">
          <mxGeometry y="14" width="175" height="14" as="geometry" />
        </mxCell>
        <mxCell id="Jwxpb0Jw1F68lGEl7W2q-517" value="" style="shape=partialRectangle;html=1;whiteSpace=wrap;connectable=0;overflow=hidden;fillColor=none;top=0;left=0;bottom=0;right=0;" parent="Jwxpb0Jw1F68lGEl7W2q-516" vertex="1">
          <mxGeometry width="14" height="14" as="geometry" />
        </mxCell>
        <mxCell id="Jwxpb0Jw1F68lGEl7W2q-518" value="" style="shape=partialRectangle;html=1;whiteSpace=wrap;connectable=0;overflow=hidden;fillColor=none;top=0;left=0;bottom=0;right=0;" parent="Jwxpb0Jw1F68lGEl7W2q-516" vertex="1">
          <mxGeometry x="14" width="15" height="14" as="geometry" />
        </mxCell>
        <mxCell id="Jwxpb0Jw1F68lGEl7W2q-519" value="" style="shape=partialRectangle;html=1;whiteSpace=wrap;connectable=0;overflow=hidden;fillColor=none;top=0;left=0;bottom=0;right=0;" parent="Jwxpb0Jw1F68lGEl7W2q-516" vertex="1">
          <mxGeometry x="29" width="15" height="14" as="geometry" />
        </mxCell>
        <mxCell id="Jwxpb0Jw1F68lGEl7W2q-520" value="" style="shape=partialRectangle;html=1;whiteSpace=wrap;connectable=0;overflow=hidden;fillColor=none;top=0;left=0;bottom=0;right=0;" parent="Jwxpb0Jw1F68lGEl7W2q-516" vertex="1">
          <mxGeometry x="44" width="15" height="14" as="geometry" />
        </mxCell>
        <mxCell id="Jwxpb0Jw1F68lGEl7W2q-521" value="" style="shape=partialRectangle;html=1;whiteSpace=wrap;connectable=0;overflow=hidden;fillColor=none;top=0;left=0;bottom=0;right=0;" parent="Jwxpb0Jw1F68lGEl7W2q-516" vertex="1">
          <mxGeometry x="59" width="14" height="14" as="geometry" />
        </mxCell>
        <mxCell id="Jwxpb0Jw1F68lGEl7W2q-522" value="" style="shape=partialRectangle;html=1;whiteSpace=wrap;connectable=0;overflow=hidden;fillColor=none;top=0;left=0;bottom=0;right=0;" parent="Jwxpb0Jw1F68lGEl7W2q-516" vertex="1">
          <mxGeometry x="73" width="15" height="14" as="geometry" />
        </mxCell>
        <mxCell id="Jwxpb0Jw1F68lGEl7W2q-523" value="" style="shape=partialRectangle;html=1;whiteSpace=wrap;connectable=0;overflow=hidden;fillColor=none;top=0;left=0;bottom=0;right=0;" parent="Jwxpb0Jw1F68lGEl7W2q-516" vertex="1">
          <mxGeometry x="88" width="14" height="14" as="geometry" />
        </mxCell>
        <mxCell id="Jwxpb0Jw1F68lGEl7W2q-524" value="" style="shape=partialRectangle;html=1;whiteSpace=wrap;connectable=0;overflow=hidden;fillColor=none;top=0;left=0;bottom=0;right=0;" parent="Jwxpb0Jw1F68lGEl7W2q-516" vertex="1">
          <mxGeometry x="102" width="14" height="14" as="geometry" />
        </mxCell>
        <mxCell id="Jwxpb0Jw1F68lGEl7W2q-525" value="" style="shape=partialRectangle;html=1;whiteSpace=wrap;connectable=0;overflow=hidden;fillColor=none;top=0;left=0;bottom=0;right=0;" parent="Jwxpb0Jw1F68lGEl7W2q-516" vertex="1">
          <mxGeometry x="116" width="16" height="14" as="geometry" />
        </mxCell>
        <mxCell id="Jwxpb0Jw1F68lGEl7W2q-526" value="" style="shape=partialRectangle;html=1;whiteSpace=wrap;connectable=0;overflow=hidden;fillColor=none;top=0;left=0;bottom=0;right=0;" parent="Jwxpb0Jw1F68lGEl7W2q-516" vertex="1">
          <mxGeometry x="132" width="14" height="14" as="geometry" />
        </mxCell>
        <mxCell id="Jwxpb0Jw1F68lGEl7W2q-527" value="" style="shape=partialRectangle;html=1;whiteSpace=wrap;connectable=0;overflow=hidden;fillColor=none;top=0;left=0;bottom=0;right=0;" parent="Jwxpb0Jw1F68lGEl7W2q-516" vertex="1">
          <mxGeometry x="146" width="15" height="14" as="geometry" />
        </mxCell>
        <mxCell id="Jwxpb0Jw1F68lGEl7W2q-528" value="" style="shape=partialRectangle;html=1;whiteSpace=wrap;connectable=0;overflow=hidden;fillColor=none;top=0;left=0;bottom=0;right=0;" parent="Jwxpb0Jw1F68lGEl7W2q-516" vertex="1">
          <mxGeometry x="161" width="14" height="14" as="geometry" />
        </mxCell>
        <mxCell id="Jwxpb0Jw1F68lGEl7W2q-529" value="" style="shape=partialRectangle;html=1;whiteSpace=wrap;collapsible=0;dropTarget=0;pointerEvents=0;fillColor=none;top=0;left=0;bottom=0;right=0;points=[[0,0.5],[1,0.5]];portConstraint=eastwest;" parent="Jwxpb0Jw1F68lGEl7W2q-502" vertex="1">
          <mxGeometry y="28" width="175" height="14" as="geometry" />
        </mxCell>
        <mxCell id="Jwxpb0Jw1F68lGEl7W2q-530" value="" style="shape=partialRectangle;html=1;whiteSpace=wrap;connectable=0;overflow=hidden;fillColor=none;top=0;left=0;bottom=0;right=0;" parent="Jwxpb0Jw1F68lGEl7W2q-529" vertex="1">
          <mxGeometry width="14" height="14" as="geometry" />
        </mxCell>
        <mxCell id="Jwxpb0Jw1F68lGEl7W2q-531" value="" style="shape=partialRectangle;html=1;whiteSpace=wrap;connectable=0;overflow=hidden;fillColor=none;top=0;left=0;bottom=0;right=0;" parent="Jwxpb0Jw1F68lGEl7W2q-529" vertex="1">
          <mxGeometry x="14" width="15" height="14" as="geometry" />
        </mxCell>
        <mxCell id="Jwxpb0Jw1F68lGEl7W2q-532" value="" style="shape=partialRectangle;html=1;whiteSpace=wrap;connectable=0;overflow=hidden;fillColor=none;top=0;left=0;bottom=0;right=0;" parent="Jwxpb0Jw1F68lGEl7W2q-529" vertex="1">
          <mxGeometry x="29" width="15" height="14" as="geometry" />
        </mxCell>
        <mxCell id="Jwxpb0Jw1F68lGEl7W2q-533" value="" style="shape=partialRectangle;html=1;whiteSpace=wrap;connectable=0;overflow=hidden;fillColor=none;top=0;left=0;bottom=0;right=0;" parent="Jwxpb0Jw1F68lGEl7W2q-529" vertex="1">
          <mxGeometry x="44" width="15" height="14" as="geometry" />
        </mxCell>
        <mxCell id="Jwxpb0Jw1F68lGEl7W2q-534" value="" style="shape=partialRectangle;html=1;whiteSpace=wrap;connectable=0;overflow=hidden;fillColor=none;top=0;left=0;bottom=0;right=0;" parent="Jwxpb0Jw1F68lGEl7W2q-529" vertex="1">
          <mxGeometry x="59" width="14" height="14" as="geometry" />
        </mxCell>
        <mxCell id="Jwxpb0Jw1F68lGEl7W2q-535" value="" style="shape=partialRectangle;html=1;whiteSpace=wrap;connectable=0;overflow=hidden;fillColor=none;top=0;left=0;bottom=0;right=0;" parent="Jwxpb0Jw1F68lGEl7W2q-529" vertex="1">
          <mxGeometry x="73" width="15" height="14" as="geometry" />
        </mxCell>
        <mxCell id="Jwxpb0Jw1F68lGEl7W2q-536" value="" style="shape=partialRectangle;html=1;whiteSpace=wrap;connectable=0;overflow=hidden;fillColor=none;top=0;left=0;bottom=0;right=0;" parent="Jwxpb0Jw1F68lGEl7W2q-529" vertex="1">
          <mxGeometry x="88" width="14" height="14" as="geometry" />
        </mxCell>
        <mxCell id="Jwxpb0Jw1F68lGEl7W2q-537" value="" style="shape=partialRectangle;html=1;whiteSpace=wrap;connectable=0;overflow=hidden;fillColor=none;top=0;left=0;bottom=0;right=0;" parent="Jwxpb0Jw1F68lGEl7W2q-529" vertex="1">
          <mxGeometry x="102" width="14" height="14" as="geometry" />
        </mxCell>
        <mxCell id="Jwxpb0Jw1F68lGEl7W2q-538" value="" style="shape=partialRectangle;html=1;whiteSpace=wrap;connectable=0;overflow=hidden;fillColor=none;top=0;left=0;bottom=0;right=0;" parent="Jwxpb0Jw1F68lGEl7W2q-529" vertex="1">
          <mxGeometry x="116" width="16" height="14" as="geometry" />
        </mxCell>
        <mxCell id="Jwxpb0Jw1F68lGEl7W2q-539" value="" style="shape=partialRectangle;html=1;whiteSpace=wrap;connectable=0;overflow=hidden;fillColor=none;top=0;left=0;bottom=0;right=0;" parent="Jwxpb0Jw1F68lGEl7W2q-529" vertex="1">
          <mxGeometry x="132" width="14" height="14" as="geometry" />
        </mxCell>
        <mxCell id="Jwxpb0Jw1F68lGEl7W2q-540" value="" style="shape=partialRectangle;html=1;whiteSpace=wrap;connectable=0;overflow=hidden;fillColor=none;top=0;left=0;bottom=0;right=0;" parent="Jwxpb0Jw1F68lGEl7W2q-529" vertex="1">
          <mxGeometry x="146" width="15" height="14" as="geometry" />
        </mxCell>
        <mxCell id="Jwxpb0Jw1F68lGEl7W2q-541" value="" style="shape=partialRectangle;html=1;whiteSpace=wrap;connectable=0;overflow=hidden;fillColor=none;top=0;left=0;bottom=0;right=0;" parent="Jwxpb0Jw1F68lGEl7W2q-529" vertex="1">
          <mxGeometry x="161" width="14" height="14" as="geometry" />
        </mxCell>
        <mxCell id="Jwxpb0Jw1F68lGEl7W2q-542" value="" style="shape=partialRectangle;html=1;whiteSpace=wrap;collapsible=0;dropTarget=0;pointerEvents=0;fillColor=none;top=0;left=0;bottom=0;right=0;points=[[0,0.5],[1,0.5]];portConstraint=eastwest;" parent="Jwxpb0Jw1F68lGEl7W2q-502" vertex="1">
          <mxGeometry y="42" width="175" height="14" as="geometry" />
        </mxCell>
        <mxCell id="Jwxpb0Jw1F68lGEl7W2q-543" value="" style="shape=partialRectangle;html=1;whiteSpace=wrap;connectable=0;overflow=hidden;fillColor=none;top=0;left=0;bottom=0;right=0;" parent="Jwxpb0Jw1F68lGEl7W2q-542" vertex="1">
          <mxGeometry width="14" height="14" as="geometry" />
        </mxCell>
        <mxCell id="Jwxpb0Jw1F68lGEl7W2q-544" value="" style="shape=partialRectangle;html=1;whiteSpace=wrap;connectable=0;overflow=hidden;fillColor=none;top=0;left=0;bottom=0;right=0;" parent="Jwxpb0Jw1F68lGEl7W2q-542" vertex="1">
          <mxGeometry x="14" width="15" height="14" as="geometry" />
        </mxCell>
        <mxCell id="Jwxpb0Jw1F68lGEl7W2q-545" value="" style="shape=partialRectangle;html=1;whiteSpace=wrap;connectable=0;overflow=hidden;fillColor=none;top=0;left=0;bottom=0;right=0;" parent="Jwxpb0Jw1F68lGEl7W2q-542" vertex="1">
          <mxGeometry x="29" width="15" height="14" as="geometry" />
        </mxCell>
        <mxCell id="Jwxpb0Jw1F68lGEl7W2q-546" value="" style="shape=partialRectangle;html=1;whiteSpace=wrap;connectable=0;overflow=hidden;fillColor=none;top=0;left=0;bottom=0;right=0;" parent="Jwxpb0Jw1F68lGEl7W2q-542" vertex="1">
          <mxGeometry x="44" width="15" height="14" as="geometry" />
        </mxCell>
        <mxCell id="Jwxpb0Jw1F68lGEl7W2q-547" value="" style="shape=partialRectangle;html=1;whiteSpace=wrap;connectable=0;overflow=hidden;fillColor=none;top=0;left=0;bottom=0;right=0;" parent="Jwxpb0Jw1F68lGEl7W2q-542" vertex="1">
          <mxGeometry x="59" width="14" height="14" as="geometry" />
        </mxCell>
        <mxCell id="Jwxpb0Jw1F68lGEl7W2q-548" value="" style="shape=partialRectangle;html=1;whiteSpace=wrap;connectable=0;overflow=hidden;fillColor=none;top=0;left=0;bottom=0;right=0;" parent="Jwxpb0Jw1F68lGEl7W2q-542" vertex="1">
          <mxGeometry x="73" width="15" height="14" as="geometry" />
        </mxCell>
        <mxCell id="Jwxpb0Jw1F68lGEl7W2q-549" value="" style="shape=partialRectangle;html=1;whiteSpace=wrap;connectable=0;overflow=hidden;fillColor=none;top=0;left=0;bottom=0;right=0;" parent="Jwxpb0Jw1F68lGEl7W2q-542" vertex="1">
          <mxGeometry x="88" width="14" height="14" as="geometry" />
        </mxCell>
        <mxCell id="Jwxpb0Jw1F68lGEl7W2q-550" value="" style="shape=partialRectangle;html=1;whiteSpace=wrap;connectable=0;overflow=hidden;fillColor=none;top=0;left=0;bottom=0;right=0;" parent="Jwxpb0Jw1F68lGEl7W2q-542" vertex="1">
          <mxGeometry x="102" width="14" height="14" as="geometry" />
        </mxCell>
        <mxCell id="Jwxpb0Jw1F68lGEl7W2q-551" value="" style="shape=partialRectangle;html=1;whiteSpace=wrap;connectable=0;overflow=hidden;fillColor=none;top=0;left=0;bottom=0;right=0;" parent="Jwxpb0Jw1F68lGEl7W2q-542" vertex="1">
          <mxGeometry x="116" width="16" height="14" as="geometry" />
        </mxCell>
        <mxCell id="Jwxpb0Jw1F68lGEl7W2q-552" value="" style="shape=partialRectangle;html=1;whiteSpace=wrap;connectable=0;overflow=hidden;fillColor=none;top=0;left=0;bottom=0;right=0;" parent="Jwxpb0Jw1F68lGEl7W2q-542" vertex="1">
          <mxGeometry x="132" width="14" height="14" as="geometry" />
        </mxCell>
        <mxCell id="Jwxpb0Jw1F68lGEl7W2q-553" value="" style="shape=partialRectangle;html=1;whiteSpace=wrap;connectable=0;overflow=hidden;fillColor=none;top=0;left=0;bottom=0;right=0;" parent="Jwxpb0Jw1F68lGEl7W2q-542" vertex="1">
          <mxGeometry x="146" width="15" height="14" as="geometry" />
        </mxCell>
        <mxCell id="Jwxpb0Jw1F68lGEl7W2q-554" value="" style="shape=partialRectangle;html=1;whiteSpace=wrap;connectable=0;overflow=hidden;fillColor=none;top=0;left=0;bottom=0;right=0;" parent="Jwxpb0Jw1F68lGEl7W2q-542" vertex="1">
          <mxGeometry x="161" width="14" height="14" as="geometry" />
        </mxCell>
        <mxCell id="Jwxpb0Jw1F68lGEl7W2q-555" value="" style="shape=partialRectangle;html=1;whiteSpace=wrap;collapsible=0;dropTarget=0;pointerEvents=0;fillColor=none;top=0;left=0;bottom=0;right=0;points=[[0,0.5],[1,0.5]];portConstraint=eastwest;" parent="Jwxpb0Jw1F68lGEl7W2q-502" vertex="1">
          <mxGeometry y="56" width="175" height="14" as="geometry" />
        </mxCell>
        <mxCell id="Jwxpb0Jw1F68lGEl7W2q-556" value="" style="shape=partialRectangle;html=1;whiteSpace=wrap;connectable=0;overflow=hidden;fillColor=none;top=0;left=0;bottom=0;right=0;" parent="Jwxpb0Jw1F68lGEl7W2q-555" vertex="1">
          <mxGeometry width="14" height="14" as="geometry" />
        </mxCell>
        <mxCell id="Jwxpb0Jw1F68lGEl7W2q-557" value="" style="shape=partialRectangle;html=1;whiteSpace=wrap;connectable=0;overflow=hidden;fillColor=none;top=0;left=0;bottom=0;right=0;" parent="Jwxpb0Jw1F68lGEl7W2q-555" vertex="1">
          <mxGeometry x="14" width="15" height="14" as="geometry" />
        </mxCell>
        <mxCell id="Jwxpb0Jw1F68lGEl7W2q-558" value="" style="shape=partialRectangle;html=1;whiteSpace=wrap;connectable=0;overflow=hidden;fillColor=none;top=0;left=0;bottom=0;right=0;" parent="Jwxpb0Jw1F68lGEl7W2q-555" vertex="1">
          <mxGeometry x="29" width="15" height="14" as="geometry" />
        </mxCell>
        <mxCell id="Jwxpb0Jw1F68lGEl7W2q-559" value="" style="shape=partialRectangle;html=1;whiteSpace=wrap;connectable=0;overflow=hidden;fillColor=none;top=0;left=0;bottom=0;right=0;" parent="Jwxpb0Jw1F68lGEl7W2q-555" vertex="1">
          <mxGeometry x="44" width="15" height="14" as="geometry" />
        </mxCell>
        <mxCell id="Jwxpb0Jw1F68lGEl7W2q-560" value="" style="shape=partialRectangle;html=1;whiteSpace=wrap;connectable=0;overflow=hidden;fillColor=none;top=0;left=0;bottom=0;right=0;" parent="Jwxpb0Jw1F68lGEl7W2q-555" vertex="1">
          <mxGeometry x="59" width="14" height="14" as="geometry" />
        </mxCell>
        <mxCell id="Jwxpb0Jw1F68lGEl7W2q-561" value="" style="shape=partialRectangle;html=1;whiteSpace=wrap;connectable=0;overflow=hidden;fillColor=none;top=0;left=0;bottom=0;right=0;" parent="Jwxpb0Jw1F68lGEl7W2q-555" vertex="1">
          <mxGeometry x="73" width="15" height="14" as="geometry" />
        </mxCell>
        <mxCell id="Jwxpb0Jw1F68lGEl7W2q-562" value="" style="shape=partialRectangle;html=1;whiteSpace=wrap;connectable=0;overflow=hidden;fillColor=none;top=0;left=0;bottom=0;right=0;" parent="Jwxpb0Jw1F68lGEl7W2q-555" vertex="1">
          <mxGeometry x="88" width="14" height="14" as="geometry" />
        </mxCell>
        <mxCell id="Jwxpb0Jw1F68lGEl7W2q-563" value="" style="shape=partialRectangle;html=1;whiteSpace=wrap;connectable=0;overflow=hidden;fillColor=none;top=0;left=0;bottom=0;right=0;" parent="Jwxpb0Jw1F68lGEl7W2q-555" vertex="1">
          <mxGeometry x="102" width="14" height="14" as="geometry" />
        </mxCell>
        <mxCell id="Jwxpb0Jw1F68lGEl7W2q-564" value="" style="shape=partialRectangle;html=1;whiteSpace=wrap;connectable=0;overflow=hidden;fillColor=none;top=0;left=0;bottom=0;right=0;" parent="Jwxpb0Jw1F68lGEl7W2q-555" vertex="1">
          <mxGeometry x="116" width="16" height="14" as="geometry" />
        </mxCell>
        <mxCell id="Jwxpb0Jw1F68lGEl7W2q-565" value="" style="shape=partialRectangle;html=1;whiteSpace=wrap;connectable=0;overflow=hidden;fillColor=none;top=0;left=0;bottom=0;right=0;" parent="Jwxpb0Jw1F68lGEl7W2q-555" vertex="1">
          <mxGeometry x="132" width="14" height="14" as="geometry" />
        </mxCell>
        <mxCell id="Jwxpb0Jw1F68lGEl7W2q-566" value="" style="shape=partialRectangle;html=1;whiteSpace=wrap;connectable=0;overflow=hidden;fillColor=none;top=0;left=0;bottom=0;right=0;" parent="Jwxpb0Jw1F68lGEl7W2q-555" vertex="1">
          <mxGeometry x="146" width="15" height="14" as="geometry" />
        </mxCell>
        <mxCell id="Jwxpb0Jw1F68lGEl7W2q-567" value="" style="shape=partialRectangle;html=1;whiteSpace=wrap;connectable=0;overflow=hidden;fillColor=none;top=0;left=0;bottom=0;right=0;" parent="Jwxpb0Jw1F68lGEl7W2q-555" vertex="1">
          <mxGeometry x="161" width="14" height="14" as="geometry" />
        </mxCell>
        <mxCell id="Jwxpb0Jw1F68lGEl7W2q-570" value="" style="strokeWidth=1;html=1;shape=mxgraph.flowchart.annotation_2;align=left;labelPosition=right;pointerEvents=1;shadow=0;glass=0;fillColor=none;gradientColor=#ffffff;rotation=90;" parent="1" vertex="1">
          <mxGeometry x="517.87" y="342.87" width="18" height="15" as="geometry" />
        </mxCell>
        <mxCell id="Jwxpb0Jw1F68lGEl7W2q-571" value="(5x1) kernel" style="text;html=1;strokeColor=none;fillColor=none;align=center;verticalAlign=middle;whiteSpace=wrap;rounded=0;" parent="1" vertex="1">
          <mxGeometry x="486" y="322.87" width="75" height="20" as="geometry" />
        </mxCell>
        <mxCell id="Jwxpb0Jw1F68lGEl7W2q-572" value="" style="shape=curlyBracket;whiteSpace=wrap;html=1;rounded=1;shadow=0;glass=0;strokeColor=#000000;strokeWidth=1;fillColor=none;gradientColor=none;rotation=90;" parent="1" vertex="1">
          <mxGeometry x="590" y="160.5" width="20" height="213" as="geometry" />
        </mxCell>
        <mxCell id="Jwxpb0Jw1F68lGEl7W2q-573" value="Pointwise convolution" style="text;html=1;strokeColor=none;fillColor=none;align=center;verticalAlign=middle;whiteSpace=wrap;rounded=0;fontStyle=1" parent="1" vertex="1">
          <mxGeometry x="536.5" y="240" width="133.5" height="20" as="geometry" />
        </mxCell>
        <mxCell id="Jwxpb0Jw1F68lGEl7W2q-574" value="Intermediate feature map (5x12)" style="text;html=1;strokeColor=none;fillColor=none;align=center;verticalAlign=middle;whiteSpace=wrap;rounded=0;" parent="1" vertex="1">
          <mxGeometry x="511.25" y="539" width="177.5" height="20" as="geometry" />
        </mxCell>
        <mxCell id="Jwxpb0Jw1F68lGEl7W2q-578" value="" style="shape=table;html=1;whiteSpace=wrap;startSize=0;container=1;collapsible=0;childLayout=tableLayout;" parent="1" vertex="1">
          <mxGeometry x="752" y="391" width="171" height="14" as="geometry" />
        </mxCell>
        <mxCell id="Jwxpb0Jw1F68lGEl7W2q-579" value="" style="shape=partialRectangle;html=1;whiteSpace=wrap;collapsible=0;dropTarget=0;pointerEvents=0;fillColor=none;top=0;left=0;bottom=0;right=0;points=[[0,0.5],[1,0.5]];portConstraint=eastwest;" parent="Jwxpb0Jw1F68lGEl7W2q-578" vertex="1">
          <mxGeometry width="171" height="14" as="geometry" />
        </mxCell>
        <mxCell id="Jwxpb0Jw1F68lGEl7W2q-580" value="" style="shape=partialRectangle;html=1;whiteSpace=wrap;connectable=0;overflow=hidden;fillColor=none;top=0;left=0;bottom=0;right=0;" parent="Jwxpb0Jw1F68lGEl7W2q-579" vertex="1">
          <mxGeometry width="14" height="14" as="geometry" />
        </mxCell>
        <mxCell id="Jwxpb0Jw1F68lGEl7W2q-581" value="" style="shape=partialRectangle;html=1;whiteSpace=wrap;connectable=0;overflow=hidden;fillColor=none;top=0;left=0;bottom=0;right=0;" parent="Jwxpb0Jw1F68lGEl7W2q-579" vertex="1">
          <mxGeometry x="14" width="14" height="14" as="geometry" />
        </mxCell>
        <mxCell id="Jwxpb0Jw1F68lGEl7W2q-582" value="" style="shape=partialRectangle;html=1;whiteSpace=wrap;connectable=0;overflow=hidden;fillColor=none;top=0;left=0;bottom=0;right=0;" parent="Jwxpb0Jw1F68lGEl7W2q-579" vertex="1">
          <mxGeometry x="28" width="15" height="14" as="geometry" />
        </mxCell>
        <mxCell id="Jwxpb0Jw1F68lGEl7W2q-583" value="" style="shape=partialRectangle;html=1;whiteSpace=wrap;connectable=0;overflow=hidden;fillColor=none;top=0;left=0;bottom=0;right=0;" parent="Jwxpb0Jw1F68lGEl7W2q-579" vertex="1">
          <mxGeometry x="43" width="14" height="14" as="geometry" />
        </mxCell>
        <mxCell id="Jwxpb0Jw1F68lGEl7W2q-584" value="" style="shape=partialRectangle;html=1;whiteSpace=wrap;connectable=0;overflow=hidden;fillColor=none;top=0;left=0;bottom=0;right=0;" parent="Jwxpb0Jw1F68lGEl7W2q-579" vertex="1">
          <mxGeometry x="57" width="14" height="14" as="geometry" />
        </mxCell>
        <mxCell id="Jwxpb0Jw1F68lGEl7W2q-585" value="" style="shape=partialRectangle;html=1;whiteSpace=wrap;connectable=0;overflow=hidden;fillColor=none;top=0;left=0;bottom=0;right=0;" parent="Jwxpb0Jw1F68lGEl7W2q-579" vertex="1">
          <mxGeometry x="71" width="14" height="14" as="geometry" />
        </mxCell>
        <mxCell id="Jwxpb0Jw1F68lGEl7W2q-586" value="" style="shape=partialRectangle;html=1;whiteSpace=wrap;connectable=0;overflow=hidden;fillColor=none;top=0;left=0;bottom=0;right=0;" parent="Jwxpb0Jw1F68lGEl7W2q-579" vertex="1">
          <mxGeometry x="85" width="15" height="14" as="geometry" />
        </mxCell>
        <mxCell id="Jwxpb0Jw1F68lGEl7W2q-587" value="" style="shape=partialRectangle;html=1;whiteSpace=wrap;connectable=0;overflow=hidden;fillColor=none;top=0;left=0;bottom=0;right=0;" parent="Jwxpb0Jw1F68lGEl7W2q-579" vertex="1">
          <mxGeometry x="100" width="14" height="14" as="geometry" />
        </mxCell>
        <mxCell id="Jwxpb0Jw1F68lGEl7W2q-588" value="" style="shape=partialRectangle;html=1;whiteSpace=wrap;connectable=0;overflow=hidden;fillColor=none;top=0;left=0;bottom=0;right=0;" parent="Jwxpb0Jw1F68lGEl7W2q-579" vertex="1">
          <mxGeometry x="114" width="15" height="14" as="geometry" />
        </mxCell>
        <mxCell id="Jwxpb0Jw1F68lGEl7W2q-589" value="" style="shape=partialRectangle;html=1;whiteSpace=wrap;connectable=0;overflow=hidden;fillColor=none;top=0;left=0;bottom=0;right=0;" parent="Jwxpb0Jw1F68lGEl7W2q-579" vertex="1">
          <mxGeometry x="129" width="14" height="14" as="geometry" />
        </mxCell>
        <mxCell id="Jwxpb0Jw1F68lGEl7W2q-590" value="" style="shape=partialRectangle;html=1;whiteSpace=wrap;connectable=0;overflow=hidden;fillColor=none;top=0;left=0;bottom=0;right=0;" parent="Jwxpb0Jw1F68lGEl7W2q-579" vertex="1">
          <mxGeometry x="143" width="14" height="14" as="geometry" />
        </mxCell>
        <mxCell id="Jwxpb0Jw1F68lGEl7W2q-591" value="" style="shape=partialRectangle;html=1;whiteSpace=wrap;connectable=0;overflow=hidden;fillColor=none;top=0;left=0;bottom=0;right=0;" parent="Jwxpb0Jw1F68lGEl7W2q-579" vertex="1">
          <mxGeometry x="157" width="14" height="14" as="geometry" />
        </mxCell>
        <mxCell id="Jwxpb0Jw1F68lGEl7W2q-592" value="" style="endArrow=classic;html=1;" parent="1" edge="1">
          <mxGeometry width="50" height="50" relative="1" as="geometry">
            <mxPoint x="710" y="397.8299999999999" as="sourcePoint" />
            <mxPoint x="740" y="397.8299999999999" as="targetPoint" />
          </mxGeometry>
        </mxCell>
        <mxCell id="Jwxpb0Jw1F68lGEl7W2q-593" value="" style="shape=curlyBracket;whiteSpace=wrap;html=1;rounded=1;shadow=0;glass=0;strokeColor=#000000;strokeWidth=1;fillColor=none;gradientColor=none;rotation=-90;" parent="1" vertex="1">
          <mxGeometry x="590" y="414" width="20" height="213" as="geometry" />
        </mxCell>
        <mxCell id="Jwxpb0Jw1F68lGEl7W2q-594" value="Input data (5x14)" style="text;html=1;strokeColor=none;fillColor=none;align=center;verticalAlign=middle;whiteSpace=wrap;rounded=0;" parent="1" vertex="1">
          <mxGeometry x="244.75" y="539" width="177.5" height="20" as="geometry" />
        </mxCell>
        <mxCell id="Jwxpb0Jw1F68lGEl7W2q-595" value="" style="shape=curlyBracket;whiteSpace=wrap;html=1;rounded=1;shadow=0;glass=0;strokeColor=#000000;strokeWidth=1;fillColor=none;gradientColor=none;rotation=-90;" parent="1" vertex="1">
          <mxGeometry x="323.5" y="414" width="20" height="213" as="geometry" />
        </mxCell>
        <mxCell id="Jwxpb0Jw1F68lGEl7W2q-597" value="Output feature map (1x12)" style="text;html=1;strokeColor=none;fillColor=none;align=center;verticalAlign=middle;whiteSpace=wrap;rounded=0;" parent="1" vertex="1">
          <mxGeometry x="752" y="539" width="177.5" height="20" as="geometry" />
        </mxCell>
        <mxCell id="Jwxpb0Jw1F68lGEl7W2q-598" value="" style="shape=curlyBracket;whiteSpace=wrap;html=1;rounded=1;shadow=0;glass=0;strokeColor=#000000;strokeWidth=1;fillColor=none;gradientColor=none;rotation=-90;" parent="1" vertex="1">
          <mxGeometry x="830.75" y="414" width="20" height="213" as="geometry" />
        </mxCell>
        <mxCell id="Jwxpb0Jw1F68lGEl7W2q-682" style="edgeStyle=orthogonalEdgeStyle;rounded=0;sketch=0;jumpStyle=none;orthogonalLoop=1;jettySize=auto;html=1;entryX=0.522;entryY=-0.05;entryDx=0;entryDy=0;entryPerimeter=0;startArrow=none;startFill=0;endArrow=classic;endFill=1;exitX=0.274;exitY=1.003;exitDx=0;exitDy=0;exitPerimeter=0;fillColor=#d5e8d4;strokeColor=#82b366;" parent="1" source="Jwxpb0Jw1F68lGEl7W2q-628" target="Jwxpb0Jw1F68lGEl7W2q-639" edge="1">
          <mxGeometry relative="1" as="geometry">
            <Array as="points">
              <mxPoint x="272" y="680" />
              <mxPoint x="174" y="680" />
            </Array>
          </mxGeometry>
        </mxCell>
        <mxCell id="Jwxpb0Jw1F68lGEl7W2q-683" style="edgeStyle=orthogonalEdgeStyle;rounded=0;sketch=0;jumpStyle=none;orthogonalLoop=1;jettySize=auto;html=1;entryX=0.825;entryY=0.001;entryDx=0;entryDy=0;entryPerimeter=0;startArrow=none;startFill=0;endArrow=classic;endFill=1;exitX=0.486;exitY=1.011;exitDx=0;exitDy=0;exitPerimeter=0;fillColor=#d5e8d4;strokeColor=#82b366;" parent="1" source="Jwxpb0Jw1F68lGEl7W2q-628" target="Jwxpb0Jw1F68lGEl7W2q-639" edge="1">
          <mxGeometry relative="1" as="geometry">
            <Array as="points">
              <mxPoint x="312" y="680" />
              <mxPoint x="193" y="680" />
            </Array>
          </mxGeometry>
        </mxCell>
        <mxCell id="Jwxpb0Jw1F68lGEl7W2q-688" style="edgeStyle=orthogonalEdgeStyle;rounded=0;sketch=0;jumpStyle=none;orthogonalLoop=1;jettySize=auto;html=1;entryX=0.154;entryY=-0.034;entryDx=0;entryDy=0;entryPerimeter=0;startArrow=none;startFill=0;endArrow=classic;endFill=1;fontSize=27;exitX=0.056;exitY=1.024;exitDx=0;exitDy=0;exitPerimeter=0;fillColor=#d5e8d4;strokeColor=#82b366;" parent="1" source="Jwxpb0Jw1F68lGEl7W2q-628" target="Jwxpb0Jw1F68lGEl7W2q-639" edge="1">
          <mxGeometry relative="1" as="geometry">
            <Array as="points">
              <mxPoint x="231" y="680" />
              <mxPoint x="152" y="680" />
            </Array>
          </mxGeometry>
        </mxCell>
        <mxCell id="Jwxpb0Jw1F68lGEl7W2q-693" style="edgeStyle=orthogonalEdgeStyle;rounded=0;sketch=0;jumpStyle=none;orthogonalLoop=1;jettySize=auto;html=1;entryX=0.186;entryY=-0.022;entryDx=0;entryDy=0;entryPerimeter=0;startArrow=none;startFill=0;endArrow=classic;endFill=1;fontSize=18;exitX=0.171;exitY=1.048;exitDx=0;exitDy=0;exitPerimeter=0;fillColor=#dae8fc;strokeColor=#6c8ebf;" parent="1" source="Jwxpb0Jw1F68lGEl7W2q-628" target="Jwxpb0Jw1F68lGEl7W2q-644" edge="1">
          <mxGeometry relative="1" as="geometry" />
        </mxCell>
        <mxCell id="Jwxpb0Jw1F68lGEl7W2q-694" style="edgeStyle=orthogonalEdgeStyle;rounded=0;sketch=0;jumpStyle=none;orthogonalLoop=1;jettySize=auto;html=1;entryX=0.519;entryY=-0.022;entryDx=0;entryDy=0;entryPerimeter=0;startArrow=none;startFill=0;endArrow=classic;endFill=1;fontSize=18;exitX=0.394;exitY=1.048;exitDx=0;exitDy=0;exitPerimeter=0;fillColor=#dae8fc;strokeColor=#6c8ebf;" parent="1" source="Jwxpb0Jw1F68lGEl7W2q-628" target="Jwxpb0Jw1F68lGEl7W2q-644" edge="1">
          <mxGeometry relative="1" as="geometry" />
        </mxCell>
        <mxCell id="Jwxpb0Jw1F68lGEl7W2q-695" style="edgeStyle=orthogonalEdgeStyle;rounded=0;sketch=0;jumpStyle=none;orthogonalLoop=1;jettySize=auto;html=1;entryX=0.837;entryY=-0.045;entryDx=0;entryDy=0;entryPerimeter=0;startArrow=none;startFill=0;endArrow=classic;endFill=1;fontSize=18;exitX=0.615;exitY=1.036;exitDx=0;exitDy=0;exitPerimeter=0;fillColor=#dae8fc;strokeColor=#6c8ebf;" parent="1" source="Jwxpb0Jw1F68lGEl7W2q-628" target="Jwxpb0Jw1F68lGEl7W2q-644" edge="1">
          <mxGeometry relative="1" as="geometry" />
        </mxCell>
        <mxCell id="Jwxpb0Jw1F68lGEl7W2q-627" value="" style="shape=table;html=1;whiteSpace=wrap;startSize=0;container=1;collapsible=0;childLayout=tableLayout;" parent="1" vertex="1">
          <mxGeometry x="220" y="650" width="190" height="20" as="geometry" />
        </mxCell>
        <mxCell id="Jwxpb0Jw1F68lGEl7W2q-628" value="" style="shape=partialRectangle;html=1;whiteSpace=wrap;collapsible=0;dropTarget=0;pointerEvents=0;fillColor=none;top=0;left=0;bottom=0;right=0;points=[[0,0.5],[1,0.5]];portConstraint=eastwest;" parent="Jwxpb0Jw1F68lGEl7W2q-627" vertex="1">
          <mxGeometry width="190" height="20" as="geometry" />
        </mxCell>
        <mxCell id="Jwxpb0Jw1F68lGEl7W2q-629" value="1" style="shape=partialRectangle;html=1;whiteSpace=wrap;connectable=0;overflow=hidden;fillColor=none;top=0;left=0;bottom=0;right=0;" parent="Jwxpb0Jw1F68lGEl7W2q-628" vertex="1">
          <mxGeometry width="22" height="20" as="geometry" />
        </mxCell>
        <mxCell id="Jwxpb0Jw1F68lGEl7W2q-630" value="2" style="shape=partialRectangle;html=1;whiteSpace=wrap;connectable=0;overflow=hidden;fillColor=none;top=0;left=0;bottom=0;right=0;" parent="Jwxpb0Jw1F68lGEl7W2q-628" vertex="1">
          <mxGeometry x="22" width="20" height="20" as="geometry" />
        </mxCell>
        <mxCell id="Jwxpb0Jw1F68lGEl7W2q-631" value="3" style="shape=partialRectangle;html=1;whiteSpace=wrap;connectable=0;overflow=hidden;fillColor=none;top=0;left=0;bottom=0;right=0;" parent="Jwxpb0Jw1F68lGEl7W2q-628" vertex="1">
          <mxGeometry x="42" width="22" height="20" as="geometry" />
        </mxCell>
        <mxCell id="Jwxpb0Jw1F68lGEl7W2q-632" value="4" style="shape=partialRectangle;html=1;whiteSpace=wrap;connectable=0;overflow=hidden;fillColor=none;top=0;left=0;bottom=0;right=0;" parent="Jwxpb0Jw1F68lGEl7W2q-628" vertex="1">
          <mxGeometry x="64" width="21" height="20" as="geometry" />
        </mxCell>
        <mxCell id="Jwxpb0Jw1F68lGEl7W2q-633" value="5" style="shape=partialRectangle;html=1;whiteSpace=wrap;connectable=0;overflow=hidden;fillColor=none;top=0;left=0;bottom=0;right=0;" parent="Jwxpb0Jw1F68lGEl7W2q-628" vertex="1">
          <mxGeometry x="85" width="20" height="20" as="geometry" />
        </mxCell>
        <mxCell id="Jwxpb0Jw1F68lGEl7W2q-634" value="6" style="shape=partialRectangle;html=1;whiteSpace=wrap;connectable=0;overflow=hidden;fillColor=none;top=0;left=0;bottom=0;right=0;" parent="Jwxpb0Jw1F68lGEl7W2q-628" vertex="1">
          <mxGeometry x="105" width="21" height="20" as="geometry" />
        </mxCell>
        <mxCell id="Jwxpb0Jw1F68lGEl7W2q-635" value="7" style="shape=partialRectangle;html=1;whiteSpace=wrap;connectable=0;overflow=hidden;fillColor=none;top=0;left=0;bottom=0;right=0;" parent="Jwxpb0Jw1F68lGEl7W2q-628" vertex="1">
          <mxGeometry x="126" width="22" height="20" as="geometry" />
        </mxCell>
        <mxCell id="Jwxpb0Jw1F68lGEl7W2q-636" value="8" style="shape=partialRectangle;html=1;whiteSpace=wrap;connectable=0;overflow=hidden;fillColor=none;top=0;left=0;bottom=0;right=0;" parent="Jwxpb0Jw1F68lGEl7W2q-628" vertex="1">
          <mxGeometry x="148" width="20" height="20" as="geometry" />
        </mxCell>
        <mxCell id="Jwxpb0Jw1F68lGEl7W2q-637" value="9" style="shape=partialRectangle;html=1;whiteSpace=wrap;connectable=0;overflow=hidden;fillColor=none;top=0;left=0;bottom=0;right=0;" parent="Jwxpb0Jw1F68lGEl7W2q-628" vertex="1">
          <mxGeometry x="168" width="22" height="20" as="geometry" />
        </mxCell>
        <mxCell id="Jwxpb0Jw1F68lGEl7W2q-674" style="edgeStyle=orthogonalEdgeStyle;rounded=0;orthogonalLoop=1;jettySize=auto;html=1;entryX=0.104;entryY=-0.011;entryDx=0;entryDy=0;entryPerimeter=0;fillColor=#d5e8d4;strokeColor=#82b366;" parent="1" source="Jwxpb0Jw1F68lGEl7W2q-638" target="Jwxpb0Jw1F68lGEl7W2q-664" edge="1">
          <mxGeometry relative="1" as="geometry" />
        </mxCell>
        <mxCell id="Jwxpb0Jw1F68lGEl7W2q-638" value="" style="shape=table;html=1;whiteSpace=wrap;startSize=0;container=1;collapsible=0;childLayout=tableLayout;fillColor=#d5e8d4;strokeColor=#82b366;" parent="1" vertex="1">
          <mxGeometry x="143" y="720" width="60" height="20" as="geometry" />
        </mxCell>
        <mxCell id="Jwxpb0Jw1F68lGEl7W2q-639" value="" style="shape=partialRectangle;html=1;whiteSpace=wrap;collapsible=0;dropTarget=0;pointerEvents=0;fillColor=none;top=0;left=0;bottom=0;right=0;points=[[0,0.5],[1,0.5]];portConstraint=eastwest;" parent="Jwxpb0Jw1F68lGEl7W2q-638" vertex="1">
          <mxGeometry width="60" height="20" as="geometry" />
        </mxCell>
        <mxCell id="Jwxpb0Jw1F68lGEl7W2q-640" value="1" style="shape=partialRectangle;html=1;whiteSpace=wrap;connectable=0;overflow=hidden;fillColor=none;top=0;left=0;bottom=0;right=0;" parent="Jwxpb0Jw1F68lGEl7W2q-639" vertex="1">
          <mxGeometry width="20" height="20" as="geometry" />
        </mxCell>
        <mxCell id="Jwxpb0Jw1F68lGEl7W2q-641" value="3" style="shape=partialRectangle;html=1;whiteSpace=wrap;connectable=0;overflow=hidden;fillColor=none;top=0;left=0;bottom=0;right=0;" parent="Jwxpb0Jw1F68lGEl7W2q-639" vertex="1">
          <mxGeometry x="20" width="20" height="20" as="geometry" />
        </mxCell>
        <mxCell id="Jwxpb0Jw1F68lGEl7W2q-642" value="5" style="shape=partialRectangle;html=1;whiteSpace=wrap;connectable=0;overflow=hidden;fillColor=none;top=0;left=0;bottom=0;right=0;" parent="Jwxpb0Jw1F68lGEl7W2q-639" vertex="1">
          <mxGeometry x="40" width="20" height="20" as="geometry" />
        </mxCell>
        <mxCell id="Jwxpb0Jw1F68lGEl7W2q-675" style="edgeStyle=orthogonalEdgeStyle;rounded=0;orthogonalLoop=1;jettySize=auto;html=1;entryX=0.31;entryY=-0.033;entryDx=0;entryDy=0;entryPerimeter=0;fillColor=#dae8fc;strokeColor=#6c8ebf;" parent="1" source="Jwxpb0Jw1F68lGEl7W2q-643" target="Jwxpb0Jw1F68lGEl7W2q-664" edge="1">
          <mxGeometry relative="1" as="geometry">
            <Array as="points">
              <mxPoint x="243" y="758" />
              <mxPoint x="295" y="758" />
            </Array>
          </mxGeometry>
        </mxCell>
        <mxCell id="Jwxpb0Jw1F68lGEl7W2q-643" value="" style="shape=table;html=1;whiteSpace=wrap;startSize=0;container=1;collapsible=0;childLayout=tableLayout;fillColor=#dae8fc;strokeColor=#6c8ebf;" parent="1" vertex="1">
          <mxGeometry x="212.75" y="720" width="60" height="20" as="geometry" />
        </mxCell>
        <mxCell id="Jwxpb0Jw1F68lGEl7W2q-644" value="" style="shape=partialRectangle;html=1;whiteSpace=wrap;collapsible=0;dropTarget=0;pointerEvents=0;fillColor=none;top=0;left=0;bottom=0;right=0;points=[[0,0.5],[1,0.5]];portConstraint=eastwest;" parent="Jwxpb0Jw1F68lGEl7W2q-643" vertex="1">
          <mxGeometry width="60" height="20" as="geometry" />
        </mxCell>
        <mxCell id="Jwxpb0Jw1F68lGEl7W2q-645" value="2" style="shape=partialRectangle;html=1;whiteSpace=wrap;connectable=0;overflow=hidden;fillColor=none;top=0;left=0;bottom=0;right=0;" parent="Jwxpb0Jw1F68lGEl7W2q-644" vertex="1">
          <mxGeometry width="20" height="20" as="geometry" />
        </mxCell>
        <mxCell id="Jwxpb0Jw1F68lGEl7W2q-646" value="4" style="shape=partialRectangle;html=1;whiteSpace=wrap;connectable=0;overflow=hidden;fillColor=none;top=0;left=0;bottom=0;right=0;" parent="Jwxpb0Jw1F68lGEl7W2q-644" vertex="1">
          <mxGeometry x="20" width="20" height="20" as="geometry" />
        </mxCell>
        <mxCell id="Jwxpb0Jw1F68lGEl7W2q-647" value="6" style="shape=partialRectangle;html=1;whiteSpace=wrap;connectable=0;overflow=hidden;fillColor=none;top=0;left=0;bottom=0;right=0;" parent="Jwxpb0Jw1F68lGEl7W2q-644" vertex="1">
          <mxGeometry x="40" width="20" height="20" as="geometry" />
        </mxCell>
        <mxCell id="Jwxpb0Jw1F68lGEl7W2q-676" style="edgeStyle=orthogonalEdgeStyle;rounded=0;orthogonalLoop=1;jettySize=auto;html=1;entryX=0.495;entryY=0;entryDx=0;entryDy=0;entryPerimeter=0;fillColor=#fff2cc;strokeColor=#d6b656;" parent="1" source="Jwxpb0Jw1F68lGEl7W2q-648" target="Jwxpb0Jw1F68lGEl7W2q-664" edge="1">
          <mxGeometry relative="1" as="geometry" />
        </mxCell>
        <mxCell id="Jwxpb0Jw1F68lGEl7W2q-648" value="" style="shape=table;html=1;whiteSpace=wrap;startSize=0;container=1;collapsible=0;childLayout=tableLayout;fillColor=#fff2cc;strokeColor=#d6b656;" parent="1" vertex="1">
          <mxGeometry x="284.5" y="720" width="60" height="20" as="geometry" />
        </mxCell>
        <mxCell id="Jwxpb0Jw1F68lGEl7W2q-649" value="" style="shape=partialRectangle;html=1;whiteSpace=wrap;collapsible=0;dropTarget=0;pointerEvents=0;fillColor=none;top=0;left=0;bottom=0;right=0;points=[[0,0.5],[1,0.5]];portConstraint=eastwest;" parent="Jwxpb0Jw1F68lGEl7W2q-648" vertex="1">
          <mxGeometry width="60" height="20" as="geometry" />
        </mxCell>
        <mxCell id="Jwxpb0Jw1F68lGEl7W2q-650" value="3" style="shape=partialRectangle;html=1;whiteSpace=wrap;connectable=0;overflow=hidden;fillColor=none;top=0;left=0;bottom=0;right=0;" parent="Jwxpb0Jw1F68lGEl7W2q-649" vertex="1">
          <mxGeometry width="20" height="20" as="geometry" />
        </mxCell>
        <mxCell id="Jwxpb0Jw1F68lGEl7W2q-651" value="5" style="shape=partialRectangle;html=1;whiteSpace=wrap;connectable=0;overflow=hidden;fillColor=none;top=0;left=0;bottom=0;right=0;" parent="Jwxpb0Jw1F68lGEl7W2q-649" vertex="1">
          <mxGeometry x="20" width="20" height="20" as="geometry" />
        </mxCell>
        <mxCell id="Jwxpb0Jw1F68lGEl7W2q-652" value="7" style="shape=partialRectangle;html=1;whiteSpace=wrap;connectable=0;overflow=hidden;fillColor=none;top=0;left=0;bottom=0;right=0;" parent="Jwxpb0Jw1F68lGEl7W2q-649" vertex="1">
          <mxGeometry x="40" width="20" height="20" as="geometry" />
        </mxCell>
        <mxCell id="Jwxpb0Jw1F68lGEl7W2q-677" style="edgeStyle=orthogonalEdgeStyle;rounded=0;orthogonalLoop=1;jettySize=auto;html=1;entryX=0.717;entryY=-0.033;entryDx=0;entryDy=0;entryPerimeter=0;fillColor=#bac8d3;strokeColor=#23445d;" parent="1" source="Jwxpb0Jw1F68lGEl7W2q-653" target="Jwxpb0Jw1F68lGEl7W2q-664" edge="1">
          <mxGeometry relative="1" as="geometry">
            <Array as="points">
              <mxPoint x="388" y="760" />
              <mxPoint x="337" y="760" />
            </Array>
          </mxGeometry>
        </mxCell>
        <mxCell id="Jwxpb0Jw1F68lGEl7W2q-653" value="" style="shape=table;html=1;whiteSpace=wrap;startSize=0;container=1;collapsible=0;childLayout=tableLayout;fillColor=#bac8d3;strokeColor=#23445d;" parent="1" vertex="1">
          <mxGeometry x="358" y="720" width="60" height="20" as="geometry" />
        </mxCell>
        <mxCell id="Jwxpb0Jw1F68lGEl7W2q-654" value="" style="shape=partialRectangle;html=1;whiteSpace=wrap;collapsible=0;dropTarget=0;pointerEvents=0;fillColor=none;top=0;left=0;bottom=0;right=0;points=[[0,0.5],[1,0.5]];portConstraint=eastwest;" parent="Jwxpb0Jw1F68lGEl7W2q-653" vertex="1">
          <mxGeometry width="60" height="20" as="geometry" />
        </mxCell>
        <mxCell id="Jwxpb0Jw1F68lGEl7W2q-655" value="4" style="shape=partialRectangle;html=1;whiteSpace=wrap;connectable=0;overflow=hidden;fillColor=none;top=0;left=0;bottom=0;right=0;" parent="Jwxpb0Jw1F68lGEl7W2q-654" vertex="1">
          <mxGeometry width="20" height="20" as="geometry" />
        </mxCell>
        <mxCell id="Jwxpb0Jw1F68lGEl7W2q-656" value="6" style="shape=partialRectangle;html=1;whiteSpace=wrap;connectable=0;overflow=hidden;fillColor=none;top=0;left=0;bottom=0;right=0;" parent="Jwxpb0Jw1F68lGEl7W2q-654" vertex="1">
          <mxGeometry x="20" width="20" height="20" as="geometry" />
        </mxCell>
        <mxCell id="Jwxpb0Jw1F68lGEl7W2q-657" value="8" style="shape=partialRectangle;html=1;whiteSpace=wrap;connectable=0;overflow=hidden;fillColor=none;top=0;left=0;bottom=0;right=0;" parent="Jwxpb0Jw1F68lGEl7W2q-654" vertex="1">
          <mxGeometry x="40" width="20" height="20" as="geometry" />
        </mxCell>
        <mxCell id="Jwxpb0Jw1F68lGEl7W2q-678" style="edgeStyle=orthogonalEdgeStyle;rounded=0;orthogonalLoop=1;jettySize=auto;html=1;entryX=0.904;entryY=0.011;entryDx=0;entryDy=0;entryPerimeter=0;fillColor=#f8cecc;strokeColor=#b85450;" parent="1" source="Jwxpb0Jw1F68lGEl7W2q-658" target="Jwxpb0Jw1F68lGEl7W2q-664" edge="1">
          <mxGeometry relative="1" as="geometry" />
        </mxCell>
        <mxCell id="Jwxpb0Jw1F68lGEl7W2q-658" value="" style="shape=table;html=1;whiteSpace=wrap;startSize=0;container=1;collapsible=0;childLayout=tableLayout;fillColor=#f8cecc;strokeColor=#b85450;" parent="1" vertex="1">
          <mxGeometry x="427" y="720" width="60" height="20" as="geometry" />
        </mxCell>
        <mxCell id="Jwxpb0Jw1F68lGEl7W2q-659" value="" style="shape=partialRectangle;html=1;whiteSpace=wrap;collapsible=0;dropTarget=0;pointerEvents=0;fillColor=none;top=0;left=0;bottom=0;right=0;points=[[0,0.5],[1,0.5]];portConstraint=eastwest;" parent="Jwxpb0Jw1F68lGEl7W2q-658" vertex="1">
          <mxGeometry width="60" height="20" as="geometry" />
        </mxCell>
        <mxCell id="Jwxpb0Jw1F68lGEl7W2q-660" value="5" style="shape=partialRectangle;html=1;whiteSpace=wrap;connectable=0;overflow=hidden;fillColor=none;top=0;left=0;bottom=0;right=0;" parent="Jwxpb0Jw1F68lGEl7W2q-659" vertex="1">
          <mxGeometry width="20" height="20" as="geometry" />
        </mxCell>
        <mxCell id="Jwxpb0Jw1F68lGEl7W2q-661" value="7" style="shape=partialRectangle;html=1;whiteSpace=wrap;connectable=0;overflow=hidden;fillColor=none;top=0;left=0;bottom=0;right=0;" parent="Jwxpb0Jw1F68lGEl7W2q-659" vertex="1">
          <mxGeometry x="20" width="20" height="20" as="geometry" />
        </mxCell>
        <mxCell id="Jwxpb0Jw1F68lGEl7W2q-662" value="9" style="shape=partialRectangle;html=1;whiteSpace=wrap;connectable=0;overflow=hidden;fillColor=none;top=0;left=0;bottom=0;right=0;" parent="Jwxpb0Jw1F68lGEl7W2q-659" vertex="1">
          <mxGeometry x="40" width="20" height="20" as="geometry" />
        </mxCell>
        <mxCell id="Jwxpb0Jw1F68lGEl7W2q-663" value="" style="shape=table;html=1;whiteSpace=wrap;startSize=0;container=1;collapsible=0;childLayout=tableLayout;" parent="1" vertex="1">
          <mxGeometry x="263.5" y="790" width="103" height="18" as="geometry" />
        </mxCell>
        <mxCell id="Jwxpb0Jw1F68lGEl7W2q-664" value="" style="shape=partialRectangle;html=1;whiteSpace=wrap;collapsible=0;dropTarget=0;pointerEvents=0;fillColor=none;top=0;left=0;bottom=0;right=0;points=[[0,0.5],[1,0.5]];portConstraint=eastwest;" parent="Jwxpb0Jw1F68lGEl7W2q-663" vertex="1">
          <mxGeometry width="103" height="18" as="geometry" />
        </mxCell>
        <mxCell id="Jwxpb0Jw1F68lGEl7W2q-665" value="" style="shape=partialRectangle;html=1;whiteSpace=wrap;connectable=0;overflow=hidden;fillColor=#d5e8d4;top=0;left=0;bottom=0;right=0;strokeColor=none;" parent="Jwxpb0Jw1F68lGEl7W2q-664" vertex="1">
          <mxGeometry width="21" height="18" as="geometry" />
        </mxCell>
        <mxCell id="Jwxpb0Jw1F68lGEl7W2q-666" value="" style="shape=partialRectangle;html=1;whiteSpace=wrap;connectable=0;overflow=hidden;fillColor=#dae8fc;top=0;left=0;bottom=0;right=0;strokeColor=none;" parent="Jwxpb0Jw1F68lGEl7W2q-664" vertex="1">
          <mxGeometry x="21" width="20" height="18" as="geometry" />
        </mxCell>
        <mxCell id="Jwxpb0Jw1F68lGEl7W2q-667" value="" style="shape=partialRectangle;html=1;whiteSpace=wrap;connectable=0;overflow=hidden;fillColor=#fff2cc;top=0;left=0;bottom=0;right=0;" parent="Jwxpb0Jw1F68lGEl7W2q-664" vertex="1">
          <mxGeometry x="41" width="21" height="18" as="geometry" />
        </mxCell>
        <mxCell id="Jwxpb0Jw1F68lGEl7W2q-668" value="" style="shape=partialRectangle;html=1;whiteSpace=wrap;connectable=0;overflow=hidden;fillColor=#bac8d3;top=0;left=0;bottom=0;right=0;strokeWidth=1;perimeterSpacing=0;" parent="Jwxpb0Jw1F68lGEl7W2q-664" vertex="1">
          <mxGeometry x="62" width="20" height="18" as="geometry" />
        </mxCell>
        <mxCell id="Jwxpb0Jw1F68lGEl7W2q-669" value="" style="shape=partialRectangle;html=1;whiteSpace=wrap;connectable=0;overflow=hidden;fillColor=#f8cecc;top=0;left=0;bottom=0;right=0;" parent="Jwxpb0Jw1F68lGEl7W2q-664" vertex="1">
          <mxGeometry x="82" width="21" height="18" as="geometry" />
        </mxCell>
        <mxCell id="Jwxpb0Jw1F68lGEl7W2q-696" value="" style="endArrow=none;html=1;fontSize=18;entryX=0.203;entryY=-0.011;entryDx=0;entryDy=0;entryPerimeter=0;exitX=0.204;exitY=1.01;exitDx=0;exitDy=0;exitPerimeter=0;endSize=1;startSize=1;" parent="Jwxpb0Jw1F68lGEl7W2q-663" source="Jwxpb0Jw1F68lGEl7W2q-664" target="Jwxpb0Jw1F68lGEl7W2q-664" edge="1">
          <mxGeometry width="50" height="50" relative="1" as="geometry">
            <mxPoint x="16.5" y="50" as="sourcePoint" />
            <mxPoint x="66.5" as="targetPoint" />
          </mxGeometry>
        </mxCell>
        <mxCell id="Jwxpb0Jw1F68lGEl7W2q-684" value="....." style="text;html=1;strokeColor=none;fillColor=none;align=center;verticalAlign=middle;whiteSpace=wrap;rounded=0;shadow=0;glass=0;fontSize=18;" parent="1" vertex="1">
          <mxGeometry x="323.5" y="689" width="65" height="20" as="geometry" />
        </mxCell>
        <mxCell id="Jwxpb0Jw1F68lGEl7W2q-685" style="edgeStyle=orthogonalEdgeStyle;rounded=0;sketch=0;jumpStyle=none;orthogonalLoop=1;jettySize=auto;html=1;entryX=0.846;entryY=-0.007;entryDx=0;entryDy=0;entryPerimeter=0;startArrow=none;startFill=0;endArrow=classic;endFill=1;fontSize=27;exitX=0.936;exitY=1.017;exitDx=0;exitDy=0;exitPerimeter=0;fillColor=#f8cecc;strokeColor=#b85450;" parent="1" source="Jwxpb0Jw1F68lGEl7W2q-628" target="Jwxpb0Jw1F68lGEl7W2q-659" edge="1">
          <mxGeometry relative="1" as="geometry">
            <Array as="points">
              <mxPoint x="398" y="680" />
              <mxPoint x="478" y="680" />
            </Array>
          </mxGeometry>
        </mxCell>
        <mxCell id="Jwxpb0Jw1F68lGEl7W2q-686" style="edgeStyle=orthogonalEdgeStyle;rounded=0;sketch=0;jumpStyle=none;orthogonalLoop=1;jettySize=auto;html=1;entryX=0.473;entryY=0.017;entryDx=0;entryDy=0;entryPerimeter=0;startArrow=none;startFill=0;endArrow=classic;endFill=1;fontSize=27;exitX=0.719;exitY=1.028;exitDx=0;exitDy=0;exitPerimeter=0;fillColor=#f8cecc;strokeColor=#b85450;" parent="1" source="Jwxpb0Jw1F68lGEl7W2q-628" target="Jwxpb0Jw1F68lGEl7W2q-659" edge="1">
          <mxGeometry relative="1" as="geometry">
            <Array as="points">
              <mxPoint x="357" y="680" />
              <mxPoint x="455" y="680" />
            </Array>
          </mxGeometry>
        </mxCell>
        <mxCell id="Jwxpb0Jw1F68lGEl7W2q-689" value="Input data" style="text;html=1;strokeColor=none;fillColor=none;align=center;verticalAlign=middle;whiteSpace=wrap;rounded=0;" parent="1" vertex="1">
          <mxGeometry x="263.5" y="607" width="95" height="20" as="geometry" />
        </mxCell>
        <mxCell id="Jwxpb0Jw1F68lGEl7W2q-690" value="" style="shape=curlyBracket;whiteSpace=wrap;html=1;rounded=1;shadow=0;glass=0;strokeColor=#000000;strokeWidth=1;fillColor=none;gradientColor=none;rotation=90;" parent="1" vertex="1">
          <mxGeometry x="303.5" y="530" width="20" height="213" as="geometry" />
        </mxCell>
        <mxCell id="Jwxpb0Jw1F68lGEl7W2q-691" value="Feature map" style="text;html=1;strokeColor=none;fillColor=none;align=center;verticalAlign=middle;whiteSpace=wrap;rounded=0;" parent="1" vertex="1">
          <mxGeometry x="226.25" y="830" width="177.5" height="20" as="geometry" />
        </mxCell>
        <mxCell id="Jwxpb0Jw1F68lGEl7W2q-692" value="" style="shape=curlyBracket;whiteSpace=wrap;html=1;rounded=1;shadow=0;glass=0;strokeColor=#000000;strokeWidth=1;fillColor=none;gradientColor=none;rotation=-90;" parent="1" vertex="1">
          <mxGeometry x="305" y="760" width="20" height="123.5" as="geometry" />
        </mxCell>
        <mxCell id="Jwxpb0Jw1F68lGEl7W2q-697" value="" style="endArrow=none;html=1;fontSize=18;entryX=0.203;entryY=-0.011;entryDx=0;entryDy=0;entryPerimeter=0;exitX=0.204;exitY=1.01;exitDx=0;exitDy=0;exitPerimeter=0;endSize=1;startSize=1;" parent="1" edge="1">
          <mxGeometry width="50" height="50" relative="1" as="geometry">
            <mxPoint x="304.102" y="808.38" as="sourcePoint" />
            <mxPoint x="303.99899999999997" y="790.002" as="targetPoint" />
          </mxGeometry>
        </mxCell>
        <mxCell id="Jwxpb0Jw1F68lGEl7W2q-698" value="" style="endArrow=none;html=1;fontSize=18;entryX=0.203;entryY=-0.011;entryDx=0;entryDy=0;entryPerimeter=0;exitX=0.204;exitY=1.01;exitDx=0;exitDy=0;exitPerimeter=0;endSize=1;startSize=1;" parent="1" edge="1">
          <mxGeometry width="50" height="50" relative="1" as="geometry">
            <mxPoint x="325.102" y="808.38" as="sourcePoint" />
            <mxPoint x="324.99899999999997" y="790.002" as="targetPoint" />
          </mxGeometry>
        </mxCell>
        <mxCell id="Jwxpb0Jw1F68lGEl7W2q-699" value="" style="endArrow=none;html=1;fontSize=18;entryX=0.203;entryY=-0.011;entryDx=0;entryDy=0;entryPerimeter=0;exitX=0.204;exitY=1.01;exitDx=0;exitDy=0;exitPerimeter=0;endSize=1;startSize=1;" parent="1" edge="1">
          <mxGeometry width="50" height="50" relative="1" as="geometry">
            <mxPoint x="345.102" y="808.38" as="sourcePoint" />
            <mxPoint x="344.99899999999997" y="790.002" as="targetPoint" />
          </mxGeometry>
        </mxCell>
      </root>
    </mxGraphModel>
  </diagram>
</mxfile>
